<svg id="visual" viewBox="0 0 900 600" xmlns="http://www.w3.org/2000/svg" xmlns:xlink="http://www.w3.org/1999/xlink" version="1.1"><path d="M0 416L21.5 411.7C43 407.3 86 398.7 128.8 400.5C171.7 402.3 214.3 414.7 257.2 414.7C300 414.7 343 402.3 385.8 395.3C428.7 388.3 471.3 386.7 514.2 383.2C557 379.7 600 374.3 642.8 371.8C685.7 369.3 728.3 369.7 771.2 376.5C814 383.3 857 396.7 878.5 403.3L900 410L900 601L878.5 601C857 601 814 601 771.2 601C728.3 601 685.7 601 642.8 601C600 601 557 601 514.2 601C471.3 601 428.7 601 385.8 601C343 601 300 601 257.2 601C214.3 601 171.7 601 128.8 601C86 601 43 601 21.5 601L0 601Z" fill="#00d8b6"></path><path d="M0 428L21.5 430.7C43 433.3 86 438.7 128.8 438.3C171.7 438 214.3 432 257.2 432C300 432 343 438 385.8 442.8C428.7 447.7 471.3 451.3 514.2 453.2C557 455 600 455 642.8 446.3C685.7 437.7 728.3 420.3 771.2 416.5C814 412.7 857 422.3 878.5 427.2L900 432L900 601L878.5 601C857 601 814 601 771.2 601C728.3 601 685.7 601 642.8 601C600 601 557 601 514.2 601C471.3 601 428.7 601 385.8 601C343 601 300 601 257.2 601C214.3 601 171.7 601 128.8 601C86 601 43 601 21.5 601L0 601Z" fill="#0dc6a9"></path><path d="M0 503L21.5 501.7C43 500.3 86 497.7 128.8 493.2C171.7 488.7 214.3 482.3 257.2 480.7C300 479 343 482 385.8 484.8C428.7 487.7 471.3 490.3 514.2 485.8C557 481.3 600 469.7 642.8 465.7C685.7 461.7 728.3 465.3 771.2 463C814 460.7 857 452.3 878.5 448.2L900 444L900 601L878.5 601C857 601 814 601 771.2 601C728.3 601 685.7 601 642.8 601C600 601 557 601 514.2 601C471.3 601 428.7 601 385.8 601C343 601 300 601 257.2 601C214.3 601 171.7 601 128.8 601C86 601 43 601 21.5 601L0 601Z" fill="#16b59c"></path><path d="M0 491L21.5 494.7C43 498.3 86 505.7 128.8 505.2C171.7 504.7 214.3 496.3 257.2 497C300 497.7 343 507.3 385.8 509.7C428.7 512 471.3 507 514.2 508.5C557 510 600 518 642.8 522.8C685.7 527.7 728.3 529.3 771.2 527.7C814 526 857 521 878.5 518.5L900 516L900 601L878.5 601C857 601 814 601 771.2 601C728.3 601 685.7 601 642.8 601C600 601 557 601 514.2 601C471.3 601 428.7 601 385.8 601C343 601 300 601 257.2 601C214.3 601 171.7 601 128.8 601C86 601 43 601 21.5 601L0 601Z" fill="#1ca48f"></path><path d="M0 546L21.5 545.7C43 545.3 86 544.7 128.8 547.3C171.7 550 214.3 556 257.2 555.3C300 554.7 343 547.3 385.8 548C428.7 548.7 471.3 557.3 514.2 559.5C557 561.7 600 557.3 642.8 556C685.7 554.7 728.3 556.3 771.2 553.8C814 551.3 857 544.7 878.5 541.3L900 538L900 601L878.5 601C857 601 814 601 771.2 601C728.3 601 685.7 601 642.8 601C600 601 557 601 514.2 601C471.3 601 428.7 601 385.8 601C343 601 300 601 257.2 601C214.3 601 171.7 601 128.8 601C86 601 43 601 21.5 601L0 601Z" fill="#209482"></path></svg>