<svg width="200" style="position: relative; top: -50px;" height="401" viewBox="0 0 437 401" fill="none" xmlns="http://www.w3.org/2000/svg">
<path d="M424.648 100.667H6.64801V400.667H424.648V100.667Z" fill="#F93030"/>
<path d="M274.648 187.667H30.648V400.667H274.648V187.667Z" fill="#B52828"/>
<path d="M269.648 192.667H35.648V400.667H269.648V192.667Z" fill="#2D4151"/>
<path d="M269.648 192.667H35.648V400.667H269.648V192.667Z" fill="#839BAA"/>
<path d="M269.648 195.193H35.648V198.193H269.648V195.193Z" fill="#678391"/>
<path d="M269.648 202.298H35.648V205.298H269.648V202.298Z" fill="#678391"/>
<path d="M269.648 209.404H35.648V212.404H269.648V209.404Z" fill="#678391"/>
<path d="M269.648 216.509H35.648V219.509H269.648V216.509Z" fill="#678391"/>
<path d="M269.648 223.614H35.648V226.614H269.648V223.614Z" fill="#678391"/>
<path d="M269.648 230.719H35.648V233.719H269.648V230.719Z" fill="#678391"/>
<path d="M269.648 237.825H35.648V240.825H269.648V237.825Z" fill="#678391"/>
<path d="M269.648 244.93H35.648V247.93H269.648V244.93Z" fill="#678391"/>
<path d="M269.648 252.035H35.648V255.035H269.648V252.035Z" fill="#678391"/>
<path d="M269.648 266.246H35.648V269.246H269.648V266.246Z" fill="#678391"/>
<path d="M269.648 280.456H35.648V283.456H269.648V280.456Z" fill="#678391"/>
<path d="M269.648 294.667H35.648V297.667H269.648V294.667Z" fill="#678391"/>
<path d="M269.648 259.141H35.648V262.141H269.648V259.141Z" fill="#678391"/>
<path d="M269.648 273.351H35.648V276.351H269.648V273.351Z" fill="#678391"/>
<path d="M269.648 287.561H35.648V290.561H269.648V287.561Z" fill="#678391"/>
<path d="M269.648 301.772H35.648V304.772H269.648V301.772Z" fill="#678391"/>
<path d="M269.648 308.877H35.648V311.877H269.648V308.877Z" fill="#678391"/>
<path d="M269.648 315.982H35.648V318.982H269.648V315.982Z" fill="#678391"/>
<path d="M269.648 323.088H35.648V326.088H269.648V323.088Z" fill="#678391"/>
<path d="M269.648 330.193H35.648V333.193H269.648V330.193Z" fill="#678391"/>
<path d="M269.648 337.298H35.648V340.298H269.648V337.298Z" fill="#678391"/>
<path d="M269.648 344.404H35.648V347.404H269.648V344.404Z" fill="#678391"/>
<path d="M269.648 351.509H35.648V354.509H269.648V351.509Z" fill="#678391"/>
<path d="M269.648 358.614H35.648V361.614H269.648V358.614Z" fill="#678391"/>
<path d="M269.648 365.719H35.648V368.719H269.648V365.719Z" fill="#678391"/>
<path d="M269.648 372.825H35.648V375.825H269.648V372.825Z" fill="#678391"/>
<path d="M269.648 379.93H35.648V382.93H269.648V379.93Z" fill="#678391"/>
<path d="M269.648 394.141H35.648V397.141H269.648V394.141Z" fill="#678391"/>
<path d="M269.648 387.035H35.648V390.035H269.648V387.035Z" fill="#678391"/>
<path d="M389.145 187.667H302.478V246.667H389.145V187.667Z" fill="#B52828"/>
<path d="M384.146 192.667H307.479V241.167H384.146V192.667Z" fill="#FC5454"/>
<path d="M379.148 197.667H348.318V236.167H379.148V197.667Z" fill="#2D4151"/>
<path d="M343.319 197.667H312.479V236.167H343.319V197.667Z" fill="#2D4151"/>
<path d="M389.145 254.667H302.478V400.667H389.145V254.667Z" fill="#B52828"/>
<path d="M384.146 259.667H307.479V400.667H384.146V259.667Z" fill="#FC5454"/>
<path d="M379.148 264.667H348.318V303.167H379.148V264.667Z" fill="#2D4151"/>
<path d="M379.148 308.167H348.318V352.167H379.148V308.167Z" fill="#2D4151"/>
<path d="M379.148 357.167H348.318V395.667H379.148V357.167Z" fill="#2D4151"/>
<path d="M343.315 264.667H312.475V303.167H343.315V264.667Z" fill="#2D4151"/>
<path d="M343.315 308.167H312.475V352.167H343.315V308.167Z" fill="#2D4151"/>
<path d="M343.319 357.167H312.479V395.667H343.319V357.167Z" fill="#2D4151"/>
<path d="M405.315 122H30.648V173.667H405.315V122Z" fill="#B52828"/>
<path d="M400.315 127H35.648V168.667H400.315V127Z" fill="#2D4151"/>
<path d="M361.982 124.5H356.808V171.167H361.982V124.5Z" fill="#B52828"/>
<path d="M314.844 124.5H309.67V171.167H314.844V124.5Z" fill="#B52828"/>
<path d="M267.706 124.5H262.532V171.167H267.706V124.5Z" fill="#B52828"/>
<path d="M220.569 124.5H215.395V171.167H220.569V124.5Z" fill="#B52828"/>
<path d="M173.431 124.5H168.257V171.167H173.431V124.5Z" fill="#B52828"/>
<path d="M126.293 124.5H121.119V171.167H126.293V124.5Z" fill="#B52828"/>
<path d="M79.156 124.5H73.982V171.167H79.156V124.5Z" fill="#B52828"/>
<path d="M436.297 91.667H-5V107.167H436.297V91.667Z" fill="#678391"/>
<path d="M409.948 8.826H288.948V91.666H409.948V8.826Z" fill="#F93030"/>
<path d="M349.453 79.557C364.979 79.557 377.565 66.9708 377.565 51.445C377.565 35.9192 364.979 23.333 349.453 23.333C333.927 23.333 321.341 35.9192 321.341 51.445C321.341 66.9708 333.927 79.557 349.453 79.557Z" fill="#B52828"/>
<path d="M371.908 51.447C371.908 63.847 361.858 73.907 349.448 73.907C342.188 73.907 335.728 70.457 331.628 65.107C328.718 61.327 326.998 56.587 326.998 51.447C326.998 39.047 337.048 28.987 349.448 28.987C356.498 28.987 362.788 32.237 366.898 37.307C370.038 41.167 371.908 46.087 371.908 51.447Z" fill="#2D4151"/>
<path d="M416.106 0H282.801V8.823H416.106V0Z" fill="#678391"/>
<path d="M409.948 8.826H288.948V17.369H409.948V8.826Z" fill="#B52828"/>
<path d="M424.648 107.167H6.64801V116.754H424.648V107.167Z" fill="#B52828"/>
<path d="M324.232 334.667H310.725V328H324.232C326.073 328 327.565 329.492 327.565 331.333C327.565 333.174 326.073 334.667 324.232 334.667Z" fill="#FC5454"/>
<path opacity="0.2" d="M343.318 372.687V392.857H315.158C315.158 392.857 328.798 388.497 343.318 372.687Z" fill="#FCFAFA"/>
<path opacity="0.2" d="M376.628 285.407V303.167H374.418C375.358 297.587 376.108 291.677 376.628 285.407Z" fill="#FCFAFA"/>
<path opacity="0.2" d="M373.508 308.167H376.628V352.167H358.008C364.368 340.757 369.969 326.337 373.508 308.167Z" fill="#FCFAFA"/>
<path opacity="0.2" d="M355.068 357.167H376.628V392.857H348.318V366.797C350.598 363.897 352.868 360.697 355.068 357.167Z" fill="#FCFAFA"/>
<path opacity="0.2" d="M316.828 233.657C327.338 232.777 336.068 230.777 343.318 228.147V233.657H316.828Z" fill="#FCFAFA"/>
<path opacity="0.2" d="M376.888 199.297V233.657H348.318V226.137C371.588 215.857 376.888 199.297 376.888 199.297Z" fill="#FCFAFA"/>
<path opacity="0.2" d="M369.388 51.967C369.388 62.815 360.596 71.616 349.739 71.616C343.388 71.616 337.736 68.598 334.149 63.917C349.004 56.35 358.767 47.286 365.005 39.596C367.752 42.974 369.388 47.278 369.388 51.967Z" fill="#FCFAFA"/>
<path opacity="0.2" d="M397.804 128.101V166.103H376.065C376.064 166.103 395.141 160 397.804 128.101Z" fill="#FCFAFA"/>
<path opacity="0.2" d="M354.161 128.101V166.103H332.422C332.421 166.103 351.498 160 354.161 128.101Z" fill="#FCFAFA"/>
<path opacity="0.2" d="M306.518 128.101V166.103H284.779C284.779 166.103 303.855 160 306.518 128.101Z" fill="#FCFAFA"/>
<path opacity="0.2" d="M259.208 128.101V166.103H237.469C237.469 166.103 256.545 160 259.208 128.101Z" fill="#FCFAFA"/>
<path opacity="0.2" d="M212.899 128.101V166.103H191.16C191.16 166.103 210.236 160 212.899 128.101Z" fill="#FCFAFA"/>
<path opacity="0.2" d="M165.923 128.101V166.103H144.184C144.183 166.103 163.26 160 165.923 128.101Z" fill="#FCFAFA"/>
<path opacity="0.2" d="M118.946 128.101V166.103H97.207C97.207 166.103 116.283 160 118.946 128.101Z" fill="#FCFAFA"/>
<path opacity="0.2" d="M71.304 128.101V166.103H49.564C49.564 166.103 68.641 160 71.304 128.101Z" fill="#FCFAFA"/>
<path d="M351.703 25.917H347.203V76.417H351.703V25.917Z" fill="#B52828"/>
<path d="M374.703 48.917H324.203V53.417H374.703V48.917Z" fill="#B52828"/>
<path d="M288.563 291.333C291.232 291.333 293.396 289.169 293.396 286.5C293.396 283.831 291.232 281.667 288.563 281.667C285.894 281.667 283.73 283.831 283.73 286.5C283.73 289.169 285.894 291.333 288.563 291.333Z" fill="#E5AB29"/>
<path d="M288.563 245.333C287.647 245.333 286.905 246.075 286.905 246.991V266.245H290.221V246.991C290.221 246.076 289.479 245.333 288.563 245.333Z" fill="#2D4151"/>
<path d="M296.546 276.886V267.465C296.546 263.056 292.972 259.483 288.564 259.483C284.156 259.483 280.582 263.057 280.582 267.465V276.886C278.406 277.915 276.898 280.123 276.898 282.689V286.5H300.231V282.689C300.23 280.122 298.721 277.914 296.546 276.886Z" fill="#F9C032"/>
<path d="M44.9815 232V205.818H55.8991C57.8594 205.818 59.5 206.095 60.821 206.649C62.1506 207.203 63.1477 207.979 63.8125 208.976C64.4858 209.973 64.8224 211.128 64.8224 212.44C64.8224 213.438 64.6136 214.328 64.196 215.112C63.7784 215.888 63.2031 216.531 62.4702 217.043C61.7372 217.554 60.8892 217.912 59.9261 218.116V218.372C60.983 218.423 61.9588 218.709 62.8537 219.229C63.7571 219.749 64.4815 220.473 65.027 221.402C65.5724 222.322 65.8452 223.413 65.8452 224.675C65.8452 226.081 65.4872 227.338 64.7713 228.446C64.0554 229.545 63.0199 230.415 61.6648 231.054C60.3097 231.685 58.6648 232 56.7301 232H44.9815ZM51.3097 226.899H55.2216C56.5938 226.899 57.6037 226.639 58.2514 226.119C58.9077 225.599 59.2358 224.875 59.2358 223.946C59.2358 223.273 59.0781 222.693 58.7628 222.207C58.4474 221.713 58 221.334 57.4205 221.07C56.8409 220.797 56.1463 220.661 55.3366 220.661H51.3097V226.899ZM51.3097 216.582H54.8125C55.5028 216.582 56.1165 216.467 56.6534 216.237C57.1903 216.007 57.608 215.675 57.9062 215.24C58.2131 214.805 58.3665 214.281 58.3665 213.668C58.3665 212.79 58.0554 212.099 57.4332 211.597C56.8111 211.094 55.9716 210.842 54.9148 210.842H51.3097V216.582ZM93.5994 218.909C93.5994 221.79 93.0455 224.232 91.9375 226.234C90.8295 228.237 89.3295 229.759 87.4375 230.798C85.554 231.838 83.4403 232.358 81.0966 232.358C78.7443 232.358 76.6264 231.834 74.7429 230.786C72.8594 229.737 71.3636 228.216 70.2557 226.222C69.1562 224.219 68.6065 221.781 68.6065 218.909C68.6065 216.028 69.1562 213.587 70.2557 211.584C71.3636 209.581 72.8594 208.06 74.7429 207.02C76.6264 205.98 78.7443 205.46 81.0966 205.46C83.4403 205.46 85.554 205.98 87.4375 207.02C89.3295 208.06 90.8295 209.581 91.9375 211.584C93.0455 213.587 93.5994 216.028 93.5994 218.909ZM87.1307 218.909C87.1307 217.205 86.8878 215.764 86.402 214.588C85.9247 213.412 85.2344 212.521 84.331 211.916C83.4361 211.311 82.358 211.009 81.0966 211.009C79.8438 211.009 78.7656 211.311 77.8622 211.916C76.9588 212.521 76.2642 213.412 75.7784 214.588C75.3011 215.764 75.0625 217.205 75.0625 218.909C75.0625 220.614 75.3011 222.054 75.7784 223.23C76.2642 224.406 76.9588 225.297 77.8622 225.902C78.7656 226.507 79.8438 226.81 81.0966 226.81C82.358 226.81 83.4361 226.507 84.331 225.902C85.2344 225.297 85.9247 224.406 86.402 223.23C86.8878 222.054 87.1307 220.614 87.1307 218.909ZM97.294 205.818H105.131L111.778 222.028H112.085L118.733 205.818H126.57V232H120.408V215.918H120.19L113.901 231.834H109.963L103.673 215.828H103.456V232H97.294V205.818ZM130.517 232V205.818H141.434C143.395 205.818 145.035 206.095 146.356 206.649C147.686 207.203 148.683 207.979 149.348 208.976C150.021 209.973 150.358 211.128 150.358 212.44C150.358 213.438 150.149 214.328 149.731 215.112C149.314 215.888 148.738 216.531 148.005 217.043C147.272 217.554 146.424 217.912 145.461 218.116V218.372C146.518 218.423 147.494 218.709 148.389 219.229C149.292 219.749 150.017 220.473 150.562 221.402C151.108 222.322 151.38 223.413 151.38 224.675C151.38 226.081 151.022 227.338 150.306 228.446C149.591 229.545 148.555 230.415 147.2 231.054C145.845 231.685 144.2 232 142.265 232H130.517ZM136.845 226.899H140.757C142.129 226.899 143.139 226.639 143.787 226.119C144.443 225.599 144.771 224.875 144.771 223.946C144.771 223.273 144.613 222.693 144.298 222.207C143.983 221.713 143.535 221.334 142.956 221.07C142.376 220.797 141.681 220.661 140.872 220.661H136.845V226.899ZM136.845 216.582H140.348C141.038 216.582 141.652 216.467 142.189 216.237C142.725 216.007 143.143 215.675 143.441 215.24C143.748 214.805 143.902 214.281 143.902 213.668C143.902 212.79 143.591 212.099 142.968 211.597C142.346 211.094 141.507 210.842 140.45 210.842H136.845V216.582ZM154.423 232V205.818H172.679V210.957H160.751V216.327H171.745V221.479H160.751V226.861H172.679V232H154.423ZM182.97 205.818V232H176.642V205.818H182.97ZM186.942 232V205.818H197.758C199.718 205.818 201.41 206.172 202.833 206.879C204.265 207.578 205.369 208.584 206.144 209.896C206.92 211.2 207.308 212.747 207.308 214.537C207.308 216.352 206.911 217.895 206.119 219.165C205.326 220.426 204.201 221.389 202.744 222.054C201.286 222.71 199.56 223.038 197.566 223.038H190.727V218.053H196.39C197.344 218.053 198.141 217.929 198.781 217.682C199.428 217.426 199.918 217.043 200.251 216.531C200.583 216.011 200.749 215.347 200.749 214.537C200.749 213.727 200.583 213.058 200.251 212.53C199.918 211.993 199.428 211.592 198.781 211.328C198.133 211.055 197.336 210.919 196.39 210.919H193.271V232H186.942ZM201.683 220.034L208.202 232H201.299L194.907 220.034H201.683ZM235.49 218.909C235.49 221.79 234.936 224.232 233.828 226.234C232.72 228.237 231.22 229.759 229.328 230.798C227.445 231.838 225.331 232.358 222.987 232.358C220.635 232.358 218.517 231.834 216.634 230.786C214.75 229.737 213.254 228.216 212.146 226.222C211.047 224.219 210.497 221.781 210.497 218.909C210.497 216.028 211.047 213.587 212.146 211.584C213.254 209.581 214.75 208.06 216.634 207.02C218.517 205.98 220.635 205.46 222.987 205.46C225.331 205.46 227.445 205.98 229.328 207.02C231.22 208.06 232.72 209.581 233.828 211.584C234.936 213.587 235.49 216.028 235.49 218.909ZM229.021 218.909C229.021 217.205 228.778 215.764 228.293 214.588C227.815 213.412 227.125 212.521 226.222 211.916C225.327 211.311 224.249 211.009 222.987 211.009C221.734 211.009 220.656 211.311 219.753 211.916C218.849 212.521 218.155 213.412 217.669 214.588C217.192 215.764 216.953 217.205 216.953 218.909C216.953 220.614 217.192 222.054 217.669 223.23C218.155 224.406 218.849 225.297 219.753 225.902C220.656 226.507 221.734 226.81 222.987 226.81C224.249 226.81 225.327 226.507 226.222 225.902C227.125 225.297 227.815 224.406 228.293 223.23C228.778 222.054 229.021 220.614 229.021 218.909ZM253.337 213.668C253.251 212.73 252.872 212.001 252.199 211.482C251.534 210.953 250.584 210.689 249.348 210.689C248.53 210.689 247.848 210.795 247.303 211.009C246.757 211.222 246.348 211.516 246.075 211.891C245.803 212.257 245.662 212.679 245.653 213.156C245.636 213.548 245.713 213.893 245.884 214.192C246.063 214.49 246.318 214.754 246.651 214.984C246.991 215.206 247.401 215.402 247.878 215.572C248.355 215.743 248.892 215.892 249.489 216.02L251.739 216.531C253.034 216.812 254.176 217.188 255.165 217.656C256.162 218.125 256.997 218.683 257.67 219.331C258.352 219.979 258.868 220.724 259.217 221.568C259.567 222.412 259.746 223.358 259.754 224.406C259.746 226.06 259.328 227.479 258.501 228.663C257.675 229.848 256.486 230.756 254.935 231.386C253.392 232.017 251.53 232.332 249.348 232.332C247.158 232.332 245.249 232.004 243.621 231.348C241.993 230.692 240.727 229.695 239.824 228.357C238.92 227.018 238.456 225.327 238.43 223.281H244.49C244.541 224.125 244.767 224.828 245.168 225.391C245.568 225.953 246.118 226.379 246.817 226.669C247.524 226.959 248.342 227.104 249.271 227.104C250.124 227.104 250.848 226.989 251.445 226.759C252.05 226.528 252.514 226.209 252.838 225.8C253.162 225.391 253.328 224.922 253.337 224.393C253.328 223.899 253.175 223.477 252.876 223.128C252.578 222.77 252.118 222.463 251.496 222.207C250.882 221.943 250.098 221.7 249.143 221.479L246.408 220.839C244.141 220.32 242.355 219.48 241.051 218.321C239.747 217.153 239.099 215.577 239.108 213.591C239.099 211.972 239.534 210.553 240.412 209.334C241.29 208.115 242.504 207.165 244.055 206.483C245.607 205.801 247.375 205.46 249.361 205.46C251.389 205.46 253.149 205.805 254.641 206.496C256.141 207.178 257.304 208.136 258.131 209.372C258.957 210.608 259.379 212.04 259.396 213.668H253.337Z" fill="white"/>
</svg>
