<svg width="247" height="244" viewBox="0 0 247 244" fill="none" xmlns="http://www.w3.org/2000/svg">
<path d="M161.245 217.808C155.409 217.787 149.732 215.931 145.035 212.509L128.363 200.461C126.294 198.956 123.792 198.145 121.223 198.145C118.654 198.145 116.152 198.956 114.083 200.461L97.4106 212.509C93.0992 215.619 87.9659 217.426 82.6347 217.708C77.3036 217.99 72.0041 216.737 67.3806 214.1C62.7571 211.463 59.0086 207.556 56.5907 202.854C54.1729 198.152 53.1898 192.857 53.7611 187.613L55.9995 167.331C56.2869 164.81 55.7485 162.265 54.4634 160.069C53.1783 157.873 51.2142 156.142 48.8597 155.131L29.9873 146.896C25.0908 144.775 20.9257 141.291 18.001 136.87C15.0764 132.449 13.5189 127.282 13.5189 122C13.5189 116.719 15.0764 111.551 18.001 107.13C20.9257 102.709 25.0908 99.2251 29.9873 97.1044L48.8597 88.8694C51.2142 87.8577 53.1783 86.1268 54.4634 83.9309C55.7485 81.7351 56.2869 79.1899 55.9995 76.6694L53.7611 56.3869C53.1898 51.1432 54.1729 45.8485 56.5907 41.1464C59.0086 36.4443 62.7571 32.5372 67.3806 29.9002C72.0041 27.2631 77.3036 26.0097 82.6347 26.2921C87.9659 26.5746 93.0992 28.3808 97.4106 31.4913L114.083 43.5388C116.152 45.0437 118.654 45.8555 121.223 45.8555C123.792 45.8555 126.294 45.0437 128.363 43.5388L145.035 31.4913C148.004 29.3205 151.392 27.7742 154.99 26.9479C158.588 26.1217 162.319 26.0331 165.953 26.6875C169.665 27.3529 173.203 28.7531 176.353 30.8038C179.504 32.8545 182.202 35.5134 184.285 38.6207C184.863 39.4564 185.266 40.3974 185.472 41.3888C185.678 42.3801 185.682 43.402 185.483 44.3949C185.285 45.3877 184.889 46.3317 184.318 47.1718C183.747 48.0118 183.012 48.7311 182.156 49.2878C181.301 49.8444 180.342 50.2273 179.335 50.4141C178.328 50.6008 177.294 50.5877 176.292 50.3755C175.29 50.1634 174.342 49.7563 173.501 49.1782C172.66 48.6001 171.944 47.8624 171.395 47.0082C170.463 45.6254 169.258 44.4431 167.852 43.5324C166.446 42.6217 164.868 42.0014 163.213 41.7088C161.619 41.4185 159.982 41.462 158.406 41.8363C156.831 42.2106 155.352 42.9075 154.066 43.8819L137.394 55.9294C132.675 59.346 126.977 61.188 121.126 61.188C115.276 61.188 109.578 59.346 104.859 55.9294L88.2253 43.8819C86.3349 42.464 84.0636 41.6276 81.6949 41.4773C79.3262 41.3269 76.9652 41.8692 74.9067 43.0364C72.8481 44.2037 71.1833 45.9442 70.1201 48.0405C69.0569 50.1369 68.6424 52.4962 68.9284 54.8238L71.1669 75.0682C71.8397 80.7965 70.6457 86.5875 67.7584 91.5995C64.871 96.6115 60.4409 100.583 55.1119 102.938L36.2009 111.173C34.0574 112.112 32.236 113.646 30.9576 115.589C29.6792 117.531 28.9988 119.798 28.9988 122.114C28.9988 124.431 29.6792 126.698 30.9576 128.64C32.236 130.582 34.0574 132.116 36.2009 133.056L55.1119 141.063C60.47 143.384 64.9365 147.337 67.8595 152.344C70.7826 157.351 72.009 163.15 71.3598 168.894L69.1214 189.138C68.8354 191.466 69.2499 193.825 70.3131 195.921C71.3763 198.018 73.0411 199.758 75.0996 200.926C77.1582 202.093 79.5192 202.635 81.8879 202.485C84.2566 202.334 86.5279 201.498 88.4183 200.08L105.052 188.033C109.771 184.616 115.469 182.774 121.319 182.774C127.17 182.774 132.868 184.616 137.587 188.033L154.259 200.08C156.15 201.498 158.421 202.334 160.79 202.485C163.158 202.635 165.519 202.093 167.578 200.926C169.636 199.758 171.301 198.018 172.364 195.921C173.428 193.825 173.842 191.466 173.556 189.138L171.318 168.894C170.644 163.175 171.834 157.393 174.714 152.388C177.595 147.383 182.015 143.416 187.334 141.063L206.245 132.828C208.389 131.888 210.21 130.354 211.488 128.411C212.767 126.469 213.447 124.202 213.447 121.886C213.447 119.569 212.767 117.302 211.488 115.36C210.21 113.418 208.389 111.884 206.245 110.944L195.979 106.75C195.024 106.366 194.156 105.796 193.427 105.075C192.698 104.353 192.123 103.495 191.736 102.551C191.349 101.606 191.157 100.594 191.172 99.5753C191.187 98.5563 191.409 97.5507 191.825 96.6178C192.24 95.685 192.84 94.8438 193.591 94.1441C194.341 93.4444 195.225 92.9004 196.192 92.5441C197.158 92.1879 198.187 92.0266 199.218 92.0699C200.249 92.1133 201.26 92.3602 202.193 92.7963L212.459 97.2569C217.355 99.3776 221.52 102.861 224.445 107.283C227.37 111.704 228.927 116.871 228.927 122.153C228.927 127.434 227.37 132.601 224.445 137.022C221.52 141.444 217.355 144.928 212.459 147.048L193.586 155.283C191.232 156.299 189.267 158.029 187.976 160.223C186.685 162.417 186.136 164.96 186.408 167.483L188.646 187.766C189.294 193.015 188.349 198.336 185.93 203.054C183.511 207.771 179.728 211.672 175.061 214.263C170.849 216.618 166.085 217.84 161.245 217.808Z" fill="black"/>
<path d="M122.111 148.688C121.092 148.688 120.083 148.49 119.143 148.104C118.202 147.718 117.348 147.152 116.63 146.438L83.4011 113.613C82.5729 112.933 81.8978 112.089 81.4194 111.136C80.941 110.183 80.6697 109.141 80.623 108.079C80.5764 107.016 80.7554 105.955 81.1485 104.965C81.5416 103.974 82.1402 103.076 82.9057 102.328C83.6712 101.58 84.5868 100.998 85.5935 100.62C86.6002 100.243 87.6758 100.077 88.7511 100.134C89.8264 100.192 90.8777 100.471 91.8373 100.954C92.7969 101.436 93.6437 102.112 94.3231 102.938L122.111 130.388L220.293 33.245C221.764 31.9333 223.689 31.2305 225.669 31.2821C227.65 31.3337 229.535 32.1358 230.934 33.5223C232.332 34.9088 233.137 36.7735 233.183 38.7304C233.228 40.6872 232.51 42.5863 231.177 44.0344L127.552 146.4C126.842 147.116 125.996 147.687 125.062 148.079C124.128 148.472 123.125 148.678 122.111 148.688Z" fill="#000" fill-opacity="0.43"/>
</svg>
