<svg width="247" height="244" viewBox="0 0 247 244" fill="none" xmlns="http://www.w3.org/2000/svg">
<path d="M184.555 220.096H54.0312C51.9841 220.096 50.0208 219.292 48.5733 217.862C47.1257 216.432 46.3125 214.493 46.3125 212.471V49.5625C46.3125 47.5402 47.1257 45.6008 48.5733 44.1708C50.0208 42.7408 51.9841 41.9375 54.0312 41.9375H83.2081C85.2553 41.9375 87.2186 42.7408 88.6661 44.1708C90.1136 45.6008 90.9269 47.5402 90.9269 49.5625V65.6894H147.621V49.5625C147.621 47.5402 148.434 45.6008 149.882 44.1708C151.329 42.7408 153.293 41.9375 155.34 41.9375H184.555C186.602 41.9375 188.566 42.7408 190.013 44.1708C191.461 45.6008 192.274 47.5402 192.274 49.5625V144.875C192.274 146.897 191.461 148.837 190.013 150.267C188.566 151.697 186.602 152.5 184.555 152.5C182.508 152.5 180.545 151.697 179.097 150.267C177.65 148.837 176.837 146.897 176.837 144.875V57.1875H163.059V73.3144C163.059 75.3367 162.245 77.2761 160.798 78.7061C159.35 80.136 157.387 80.9394 155.34 80.9394H83.2467C81.1996 80.9394 79.2363 80.136 77.7887 78.7061C76.3412 77.2761 75.528 75.3367 75.528 73.3144V57.1875H61.75V204.846H176.837V195.124C176.837 193.101 177.65 191.162 179.097 189.732C180.545 188.302 182.508 187.499 184.555 187.499C186.602 187.499 188.566 188.302 190.013 189.732C191.461 191.162 192.274 193.101 192.274 195.124V212.471C192.274 214.493 191.461 216.432 190.013 217.862C188.566 219.292 186.602 220.096 184.555 220.096Z" fill="black"/>
<path d="M155.34 80.9775H83.2467C81.1996 80.9775 79.2363 80.1742 77.7887 78.7442C76.3412 77.3143 75.528 75.3748 75.528 73.3525V31.415C75.528 29.3928 76.3412 27.4533 77.7887 26.0234C79.2363 24.5934 81.1996 23.79 83.2467 23.79H155.34C157.387 23.79 159.35 24.5934 160.798 26.0234C162.245 27.4533 163.059 29.3928 163.059 31.415V73.3525C163.059 75.3748 162.245 77.3143 160.798 78.7442C159.35 80.1742 157.387 80.9775 155.34 80.9775ZM90.9655 65.7275H147.621V39.04H90.9655V65.7275Z" fill="#000"/>
<path d="M162.094 196.687C161.049 196.708 160.011 196.52 159.043 196.133C158.074 195.746 157.195 195.17 156.459 194.438L137.162 175.375C136.445 174.667 135.875 173.826 135.487 172.9C135.098 171.975 134.898 170.982 134.898 169.98C134.898 168.978 135.098 167.986 135.487 167.06C135.875 166.135 136.445 165.294 137.162 164.586L156.459 145.523C157.907 144.092 159.872 143.289 161.92 143.289C163.968 143.289 165.933 144.092 167.381 145.523C168.829 146.954 169.643 148.894 169.643 150.918C169.643 152.941 168.829 154.882 167.381 156.312L153.41 170.114L167.381 183.915C168.372 184.981 169.035 186.303 169.293 187.727C169.552 189.152 169.394 190.619 168.84 191.958C168.285 193.298 167.357 194.453 166.162 195.291C164.968 196.128 163.557 196.612 162.094 196.687Z" fill="#000" fill-opacity="0.43"/>
<path d="M216.125 177.51H142.488C140.441 177.51 138.478 176.707 137.03 175.277C135.583 173.847 134.769 171.907 134.769 169.885C134.769 167.863 135.583 165.923 137.03 164.493C138.478 163.063 140.441 162.26 142.488 162.26H216.125C218.172 162.26 220.135 163.063 221.583 164.493C223.031 165.923 223.844 167.863 223.844 169.885C223.844 171.907 223.031 173.847 221.583 175.277C220.135 176.707 218.172 177.51 216.125 177.51Z" fill="#000" fill-opacity="0.43"/>
</svg>
