<svg width="247" height="244" viewBox="0 0 247 244" fill="none" xmlns="http://www.w3.org/2000/svg">
<path d="M60.2449 151.89C58.1977 151.89 56.2344 151.087 54.7869 149.657C53.3393 148.227 52.5261 146.287 52.5261 144.265V34.0074C52.5261 31.9852 53.3393 30.0457 54.7869 28.6158C56.2344 27.1858 58.1977 26.3824 60.2449 26.3824C62.292 26.3824 64.2553 27.1858 65.7029 28.6158C67.1504 30.0457 67.9636 31.9852 67.9636 34.0074V144.265C67.9636 146.287 67.1504 148.227 65.7029 149.657C64.2553 151.087 62.292 151.89 60.2449 151.89Z" fill="black"/>
<path d="M60.2449 217.618C58.1977 217.618 56.2344 216.814 54.7869 215.384C53.3393 213.954 52.5261 212.015 52.5261 209.993V187.118C52.5261 185.095 53.3393 183.156 54.7869 181.726C56.2344 180.296 58.1977 179.493 60.2449 179.493C62.292 179.493 64.2553 180.296 65.7029 181.726C67.1504 183.156 67.9636 185.095 67.9636 187.118V209.993C67.9636 212.015 67.1504 213.954 65.7029 215.384C64.2553 216.814 62.292 217.618 60.2449 217.618Z" fill="black"/>
<path d="M123.5 144.189C121.453 144.189 119.49 143.385 118.042 141.955C116.594 140.525 115.781 138.586 115.781 136.564V99.735C115.781 97.7127 116.594 95.7733 118.042 94.3433C119.49 92.9133 121.453 92.11 123.5 92.11C125.547 92.11 127.51 92.9133 128.958 94.3433C130.406 95.7733 131.219 97.7127 131.219 99.735V136.564C131.219 138.586 130.406 140.525 128.958 141.955C127.51 143.385 125.547 144.189 123.5 144.189Z" fill="black"/>
<path d="M123.5 217.618C121.453 217.618 119.49 216.814 118.042 215.384C116.594 213.954 115.781 212.015 115.781 209.993V179.493C115.781 177.47 116.594 175.531 118.042 174.101C119.49 172.671 121.453 171.868 123.5 171.868C125.547 171.868 127.51 172.671 128.958 174.101C130.406 175.531 131.219 177.47 131.219 179.493V209.993C131.219 212.015 130.406 213.954 128.958 215.384C127.51 216.814 125.547 217.618 123.5 217.618Z" fill="black"/>
<path d="M123.5 64.5074C121.453 64.5074 119.49 63.7041 118.042 62.2741C116.594 60.8442 115.781 58.9047 115.781 56.8824V34.0074C115.781 31.9852 116.594 30.0457 118.042 28.6158C119.49 27.1858 121.453 26.3824 123.5 26.3824C125.547 26.3824 127.51 27.1858 128.958 28.6158C130.406 30.0457 131.219 31.9852 131.219 34.0074V56.8824C131.219 58.9047 130.406 60.8442 128.958 62.2741C127.51 63.7041 125.547 64.5074 123.5 64.5074Z" fill="black"/>
<path d="M186.755 129.015C184.708 129.015 182.745 128.212 181.297 126.782C179.85 125.352 179.036 123.412 179.036 121.39V34.0074C179.036 31.9852 179.85 30.0457 181.297 28.6158C182.745 27.1858 184.708 26.3824 186.755 26.3824C188.802 26.3824 190.766 27.1858 192.213 28.6158C193.661 30.0457 194.474 31.9852 194.474 34.0074V121.39C194.474 122.391 194.274 123.383 193.886 124.308C193.498 125.233 192.93 126.074 192.213 126.782C191.496 127.49 190.646 128.051 189.709 128.435C188.773 128.818 187.769 129.015 186.755 129.015Z" fill="black"/>
<path d="M186.755 217.618C184.708 217.618 182.745 216.814 181.297 215.384C179.85 213.954 179.036 212.015 179.036 209.993V164.243C179.036 162.22 179.85 160.281 181.297 158.851C182.745 157.421 184.708 156.618 186.755 156.618C188.802 156.618 190.766 157.421 192.213 158.851C193.661 160.281 194.474 162.22 194.474 164.243V209.993C194.474 212.015 193.661 213.954 192.213 215.384C190.766 216.814 188.802 217.618 186.755 217.618Z" fill="black"/>
<path d="M60.2448 194.743C54.4268 194.75 48.7371 193.053 43.8959 189.865C39.0546 186.677 35.2793 182.143 33.0475 176.835C30.8157 171.527 30.2278 165.685 31.3582 160.047C32.4886 154.409 35.2864 149.229 39.3977 145.162C43.509 141.096 48.749 138.325 54.4547 137.201C60.1605 136.077 66.0755 136.65 71.4514 138.848C76.8274 141.045 81.4226 144.769 84.6558 149.547C87.8889 154.326 89.6147 159.944 89.6147 165.691C89.6147 173.39 86.5216 180.773 81.0148 186.22C75.508 191.667 68.0377 194.732 60.2448 194.743ZM60.2448 151.89C57.48 151.882 54.7751 152.685 52.4725 154.197C50.1699 155.709 48.3732 157.862 47.3099 160.383C46.2465 162.904 45.9644 165.681 46.4991 168.36C47.0338 171.04 48.3613 173.503 50.3136 175.437C52.266 177.371 54.7553 178.689 57.4664 179.224C60.1776 179.76 62.9886 179.489 65.5437 178.446C68.0988 177.402 70.2831 175.633 71.8199 173.363C73.3568 171.092 74.1772 168.423 74.1772 165.691C74.1772 162.038 72.7106 158.533 70.0988 155.946C67.4871 153.359 63.9435 151.9 60.2448 151.89Z" fill="#000" fill-opacity="0.43"/>
<path d="M123.5 107.36C117.684 107.36 111.998 105.656 107.162 102.464C102.325 99.2718 98.556 94.7346 96.3301 89.4261C94.1043 84.1177 93.5219 78.2765 94.6566 72.6411C95.7914 67.0057 98.5923 61.8293 102.705 57.7664C106.818 53.7035 112.058 50.9366 117.763 49.8157C123.467 48.6947 129.38 49.27 134.754 51.4689C140.128 53.6677 144.721 57.3912 147.952 62.1687C151.184 66.9462 152.908 72.5629 152.908 78.3087C152.908 86.0136 149.81 93.4029 144.295 98.8511C138.78 104.299 131.3 107.36 123.5 107.36ZM123.5 64.5075C120.737 64.5075 118.036 65.3169 115.738 66.8334C113.441 68.3499 111.65 70.5054 110.593 73.0272C109.535 75.5491 109.258 78.324 109.798 81.0012C110.337 83.6784 111.667 86.1375 113.621 88.0677C115.575 89.9978 118.064 91.3123 120.774 91.8448C123.485 92.3773 126.294 92.104 128.846 91.0594C131.399 90.0148 133.581 88.2459 135.116 85.9763C136.652 83.7067 137.471 81.0383 137.471 78.3087C137.471 74.6484 135.999 71.138 133.379 68.5498C130.759 65.9615 127.205 64.5075 123.5 64.5075Z" fill="#000" fill-opacity="0.43"/>
<path d="M186.755 171.868C180.926 171.883 175.224 170.188 170.37 167C165.517 163.811 161.73 159.271 159.491 153.954C157.252 148.638 156.66 142.785 157.79 137.136C158.921 131.487 161.723 126.297 165.842 122.222C169.961 118.148 175.212 115.373 180.928 114.249C186.645 113.124 192.571 113.701 197.956 115.907C203.34 118.112 207.941 121.846 211.176 126.637C214.41 131.427 216.133 137.058 216.125 142.816C216.125 150.515 213.032 157.898 207.525 163.345C202.018 168.792 194.548 171.857 186.755 171.868ZM186.755 129.015C183.629 129.032 180.599 130.09 178.157 132.019C175.715 133.947 174.003 136.633 173.297 139.642C172.591 142.651 172.934 145.807 174.268 148.6C175.603 151.393 177.853 153.659 180.653 155.033C183.453 156.406 186.641 156.807 189.7 156.169C192.759 155.532 195.511 153.894 197.511 151.52C199.511 149.146 200.642 146.175 200.721 143.087C200.801 140 199.823 136.976 197.947 134.505C196.641 132.794 194.95 131.408 193.007 130.455C191.065 129.502 188.924 129.009 186.755 129.015Z" fill="#000" fill-opacity="0.43"/>
</svg>
