<svg viewBox="0 0 756 592" fill="none" xmlns="http://www.w3.org/2000/svg">
<g clip-path="url(#clip0_2_3)">
<path d="M378.926 16.5744C378.892 18.5077 378.475 20.4154 377.699 22.1883C376.923 23.9613 375.803 25.5648 374.404 26.9073C373.005 28.2498 371.354 29.305 369.545 30.0126C367.736 30.7201 365.804 31.0662 363.861 31.031H293.967C293.714 31.0246 293.461 31.0181 293.208 30.9987C292.553 30.9567 291.902 30.8682 291.259 30.7339V6.12269C291.259 5.13795 291.561 4.17658 292.125 3.36731C292.689 2.55804 293.488 1.9395 294.415 1.59448H364.393C368.316 1.66826 372.049 3.28685 374.774 6.09515C377.498 8.90345 378.992 12.6721 378.926 16.5744H378.926Z" fill="#0B0A0A"/>
<path d="M747.932 3.38095e-05H297.176C296.205 -0.00282011 295.242 0.175029 294.336 0.524399C292.8 1.09596 291.476 2.12066 290.542 3.46132C289.607 4.80198 289.107 6.3946 289.108 8.02595V497.072C289.109 499.2 289.959 501.241 291.472 502.746C292.985 504.251 295.037 505.097 297.176 505.097H747.932C750.071 505.097 752.123 504.251 753.636 502.746C755.149 501.241 755.999 499.2 756 497.072V8.02595C755.999 5.89758 755.149 3.8566 753.636 2.35162C752.123 0.846637 750.071 0.000805278 747.932 3.38095e-05ZM752.773 497.072C752.771 498.348 752.26 499.572 751.353 500.475C750.445 501.377 749.215 501.885 747.932 501.887H297.176C295.893 501.885 294.663 501.377 293.755 500.475C292.848 499.572 292.337 498.348 292.335 497.072V8.02595C292.337 6.74937 292.848 5.52564 293.755 4.62297C294.663 3.72029 295.893 3.21232 297.176 3.2104H747.932C749.215 3.21232 750.445 3.72029 751.353 4.62297C752.26 5.52564 752.771 6.74937 752.773 8.02595V497.072Z" fill="#0B0A0A"/>
<path d="M508.695 168.032C514.544 168.032 519.284 163.316 519.284 157.499C519.284 151.682 514.544 146.966 508.695 146.966C502.847 146.966 498.106 151.682 498.106 157.499C498.106 163.316 502.847 168.032 508.695 168.032Z" fill="#3ED42C"/>
<path d="M552.816 168.032C558.664 168.032 563.405 163.316 563.405 157.499C563.405 151.682 558.664 146.966 552.816 146.966C546.968 146.966 542.227 151.682 542.227 157.499C542.227 163.316 546.968 168.032 552.816 168.032Z" fill="#3ED42C"/>
<path d="M420.454 255.075C426.302 255.075 431.043 250.359 431.043 244.542C431.043 238.724 426.302 234.008 420.454 234.008C414.606 234.008 409.865 238.724 409.865 244.542C409.865 250.359 414.606 255.075 420.454 255.075Z" fill="#3ED42C"/>
<path d="M464.575 255.075C470.423 255.075 475.164 250.359 475.164 244.542C475.164 238.724 470.423 234.008 464.575 234.008C458.726 234.008 453.986 238.724 453.986 244.542C453.986 250.359 458.726 255.075 464.575 255.075Z" fill="#FF0000"/>
<path d="M508.695 298.596C514.544 298.596 519.284 293.88 519.284 288.063C519.284 282.246 514.544 277.53 508.695 277.53C502.847 277.53 498.106 282.246 498.106 288.063C498.106 293.88 502.847 298.596 508.695 298.596Z" fill="#3ED42C"/>
<path d="M552.816 298.596C558.664 298.596 563.405 293.88 563.405 288.063C563.405 282.246 558.664 277.53 552.816 277.53C546.968 277.53 542.227 282.246 542.227 288.063C542.227 293.88 546.968 298.596 552.816 298.596Z" fill="#3ED42C"/>
<path d="M596.937 298.596C602.785 298.596 607.526 293.88 607.526 288.063C607.526 282.246 602.785 277.53 596.937 277.53C591.089 277.53 586.348 282.246 586.348 288.063C586.348 293.88 591.089 298.596 596.937 298.596Z" fill="#3ED42C"/>
<path d="M331.603 7.78228C331.367 8.01708 331.234 8.33552 331.234 8.66758C331.234 8.99964 331.367 9.31811 331.603 9.55294L331.603 9.55304L337.006 14.9281H323.682C323.349 14.9291 323.029 15.0615 322.794 15.2962C322.559 15.5309 322.427 15.8488 322.427 16.1802C322.427 16.5117 322.559 16.8296 322.794 17.0643C323.029 17.299 323.349 17.4314 323.682 17.4323H337.006L331.603 22.8074C331.367 23.0422 331.234 23.3607 331.234 23.6928C331.234 24.0249 331.367 24.3433 331.603 24.5781C331.839 24.813 332.159 24.9449 332.493 24.9449C332.827 24.9449 333.147 24.813 333.383 24.5782L340.935 17.0656C341.171 16.8308 341.304 16.5123 341.304 16.1802C341.304 15.8482 341.171 15.5297 340.935 15.2949L333.383 7.78228C333.147 7.54749 332.827 7.41559 332.493 7.41559C332.159 7.41559 331.839 7.54749 331.603 7.78228H331.603Z" fill="#24D120"/>
<path d="M650.731 179.971H366.405C365.305 179.971 364.413 179.492 364.413 178.901C364.413 178.31 365.305 177.831 366.405 177.831H650.731C651.831 177.831 652.723 178.31 652.723 178.901C652.723 179.492 651.831 179.971 650.731 179.971Z" fill="#0B0A0A"/>
<path d="M650.731 132.695H366.405C365.305 132.695 364.413 132.216 364.413 131.625C364.413 131.034 365.305 130.555 366.405 130.555H650.731C651.831 130.555 652.723 131.034 652.723 131.625C652.723 132.216 651.831 132.695 650.731 132.695Z" fill="#0B0A0A"/>
<path d="M651.647 224.127H365.744C365.459 224.127 365.185 224.015 364.983 223.814C364.782 223.613 364.668 223.341 364.668 223.057C364.668 222.773 364.782 222.501 364.983 222.301C365.185 222.1 365.459 221.987 365.744 221.987H651.647C651.932 221.987 652.206 222.1 652.408 222.301C652.609 222.501 652.723 222.773 652.723 223.057C652.723 223.341 652.609 223.613 652.408 223.814C652.206 224.015 651.932 224.127 651.647 224.127Z" fill="#0B0A0A"/>
<path d="M651.647 266.932H365.744C365.459 266.932 365.185 266.819 364.983 266.619C364.782 266.418 364.668 266.146 364.668 265.862C364.668 265.578 364.782 265.306 364.983 265.105C365.185 264.905 365.459 264.792 365.744 264.792H651.647C651.932 264.792 652.206 264.905 652.408 265.105C652.609 265.306 652.723 265.578 652.723 265.862C652.723 266.146 652.609 266.418 652.408 266.619C652.206 266.819 651.932 266.932 651.647 266.932Z" fill="#0B0A0A"/>
<path d="M651.647 310.807H365.744C365.459 310.807 365.185 310.694 364.983 310.494C364.782 310.293 364.668 310.021 364.668 309.737C364.668 309.453 364.782 309.181 364.983 308.98C365.185 308.78 365.459 308.667 365.744 308.667H651.647C651.932 308.667 652.206 308.78 652.408 308.98C652.609 309.181 652.723 309.453 652.723 309.737C652.723 310.021 652.609 310.293 652.408 310.494C652.206 310.694 651.932 310.807 651.647 310.807Z" fill="#0B0A0A"/>
<path d="M618.299 308.602V132.288C618.299 131.922 618.781 131.625 619.375 131.625C619.969 131.625 620.451 131.922 620.451 132.288V308.602C620.451 308.968 619.969 309.265 619.375 309.265C618.781 309.265 618.299 308.968 618.299 308.602Z" fill="#0B0A0A"/>
<path d="M574.192 308.602V132.288C574.192 131.922 574.673 131.625 575.268 131.625C575.862 131.625 576.343 131.922 576.343 132.288V308.602C576.343 308.968 575.862 309.265 575.268 309.265C574.673 309.265 574.192 308.968 574.192 308.602Z" fill="#0B0A0A"/>
<path d="M530.084 308.602V132.288C530.084 131.922 530.566 131.625 531.16 131.625C531.754 131.625 532.236 131.922 532.236 132.288V308.602C532.236 308.968 531.754 309.265 531.16 309.265C530.566 309.265 530.084 308.968 530.084 308.602Z" fill="#0B0A0A"/>
<path d="M487.053 308.602V132.288C487.053 131.922 487.535 131.625 488.129 131.625C488.723 131.625 489.205 131.922 489.205 132.288V308.602C489.205 308.968 488.723 309.265 488.129 309.265C487.535 309.265 487.053 308.968 487.053 308.602Z" fill="#0B0A0A"/>
<path d="M441.87 353.379V132.456C441.931 132.219 442.07 132.008 442.264 131.857C442.459 131.707 442.699 131.625 442.946 131.625C443.192 131.625 443.432 131.707 443.627 131.857C443.821 132.008 443.96 132.219 444.021 132.456V353.379C443.96 353.617 443.821 353.828 443.627 353.978C443.432 354.129 443.192 354.21 442.946 354.21C442.699 354.21 442.459 354.129 442.264 353.978C442.07 353.828 441.931 353.617 441.87 353.379Z" fill="#0B0A0A"/>
<path d="M396.687 353.379V132.456C396.748 132.219 396.887 132.008 397.081 131.857C397.276 131.707 397.516 131.625 397.762 131.625C398.009 131.625 398.249 131.707 398.444 131.857C398.638 132.008 398.777 132.219 398.838 132.456V353.379C398.777 353.617 398.638 353.828 398.444 353.978C398.249 354.129 398.009 354.21 397.762 354.21C397.516 354.21 397.276 354.129 397.081 353.978C396.887 353.828 396.748 353.617 396.687 353.379Z" fill="#0B0A0A"/>
<path d="M365.744 354.683C365.459 354.683 365.185 354.571 364.983 354.371C364.781 354.171 364.667 353.899 364.666 353.615C364.665 353.331 364.778 353.059 364.979 352.858C365.181 352.656 365.454 352.543 365.739 352.542L475.214 352.07C475.498 352.076 475.768 352.19 475.969 352.388C476.17 352.587 476.287 352.854 476.295 353.136C476.296 353.276 476.268 353.416 476.215 353.546C476.161 353.676 476.083 353.794 475.983 353.894C475.884 353.994 475.766 354.073 475.635 354.127C475.505 354.182 475.365 354.21 475.224 354.21L365.749 354.683H365.744Z" fill="#0B0A0A"/>
<path d="M445.783 85.8004C445.497 85.8007 445.224 85.6881 445.022 85.4876C444.82 85.287 444.706 85.0149 444.706 84.7311C444.706 84.4473 444.819 84.175 445.021 83.9742C445.222 83.7734 445.496 83.6604 445.781 83.6602L599.324 83.4695H599.325C599.61 83.4693 599.884 83.5818 600.086 83.7824C600.288 83.9829 600.401 84.255 600.402 84.5388C600.402 84.8226 600.289 85.0949 600.087 85.2957C599.886 85.4966 599.612 85.6095 599.327 85.6097L445.784 85.8004H445.783Z" fill="#0B0A0A"/>
<path d="M497.773 434.687C493.51 434.687 489.342 433.429 485.798 431.073C482.253 428.717 479.491 425.369 477.859 421.451C476.228 417.533 475.801 413.223 476.633 409.064C477.465 404.904 479.517 401.084 482.532 398.086C485.546 395.087 489.387 393.045 493.568 392.218C497.749 391.391 502.083 391.815 506.021 393.438C509.959 395.061 513.326 397.809 515.694 401.335C518.062 404.861 519.327 409.006 519.327 413.246C519.327 416.062 518.769 418.85 517.686 421.451C516.603 424.053 515.015 426.416 513.014 428.407C511.012 430.398 508.636 431.977 506.021 433.055C503.406 434.132 500.603 434.687 497.773 434.687Z" fill="#0B0A0A"/>
<path d="M506.277 411.132H499.899V404.787C499.899 404.226 499.675 403.688 499.276 403.291C498.877 402.894 498.337 402.672 497.773 402.672C497.209 402.672 496.668 402.894 496.269 403.291C495.871 403.688 495.647 404.226 495.647 404.787V411.132H489.268C488.704 411.132 488.163 411.354 487.765 411.751C487.366 412.148 487.142 412.686 487.142 413.246C487.142 413.807 487.366 414.345 487.765 414.742C488.163 415.139 488.704 415.361 489.268 415.361H495.647V421.706C495.646 421.984 495.7 422.26 495.807 422.517C495.913 422.774 496.07 423.008 496.268 423.205C496.465 423.402 496.7 423.558 496.958 423.665C497.216 423.771 497.493 423.826 497.773 423.826C498.052 423.826 498.329 423.771 498.587 423.665C498.846 423.558 499.08 423.402 499.278 423.205C499.475 423.008 499.632 422.774 499.738 422.517C499.845 422.26 499.899 421.984 499.899 421.706V415.361H506.277C506.841 415.361 507.382 415.139 507.781 414.742C508.179 414.345 508.403 413.807 508.403 413.246C508.403 412.686 508.179 412.148 507.781 411.751C507.382 411.354 506.841 411.132 506.277 411.132Z" fill="#24D120"/>
<path d="M547.259 434.687C542.996 434.687 538.829 433.429 535.284 431.073C531.74 428.717 528.977 425.369 527.346 421.451C525.714 417.533 525.288 413.223 526.119 409.064C526.951 404.904 529.004 401.084 532.018 398.086C535.032 395.087 538.873 393.045 543.054 392.218C547.235 391.391 551.569 391.815 555.507 393.438C559.446 395.061 562.812 397.809 565.18 401.335C567.549 404.861 568.813 409.006 568.813 413.246C568.813 416.062 568.255 418.85 567.172 421.451C566.089 424.053 564.501 426.416 562.5 428.407C560.498 430.398 558.122 431.977 555.507 433.055C552.892 434.132 550.089 434.687 547.259 434.687Z" fill="#0B0A0A"/>
<path d="M558.168 422.37L552.554 415.832C553.868 413.982 554.439 411.709 554.154 409.461C553.868 407.213 552.748 405.153 551.012 403.686C549.276 402.218 547.052 401.451 544.775 401.533C542.499 401.615 540.336 402.542 538.713 404.131C537.089 405.72 536.122 407.856 536.002 410.119C535.882 412.381 536.617 414.607 538.064 416.357C539.51 418.107 541.563 419.255 543.817 419.576C546.072 419.897 548.366 419.366 550.247 418.089L555.714 424.455C555.993 424.776 556.388 424.975 556.813 425.007C557.239 425.039 557.659 424.903 557.984 424.627C558.308 424.352 558.51 423.959 558.544 423.536C558.579 423.114 558.444 422.694 558.168 422.37ZM539.191 410.571C539.191 409.407 539.538 408.269 540.188 407.301C540.838 406.333 541.762 405.579 542.843 405.133C543.924 404.688 545.114 404.571 546.262 404.799C547.409 405.026 548.464 405.586 549.291 406.409C550.119 407.232 550.682 408.281 550.911 409.423C551.139 410.565 551.022 411.748 550.574 412.824C550.126 413.899 549.368 414.818 548.395 415.465C547.422 416.112 546.278 416.457 545.107 416.457C543.539 416.455 542.035 415.834 540.926 414.731C539.816 413.628 539.192 412.132 539.191 410.571Z" fill="#24D120"/>
<path d="M445.783 436.801C445.497 436.801 445.224 436.689 445.022 436.488C444.82 436.287 444.706 436.015 444.706 435.732C444.706 435.448 444.819 435.176 445.021 434.975C445.222 434.774 445.496 434.661 445.781 434.661L599.324 434.469H599.325C599.61 434.469 599.884 434.582 600.086 434.782C600.288 434.983 600.401 435.255 600.402 435.539C600.402 435.823 600.289 436.095 600.087 436.296C599.886 436.496 599.612 436.609 599.327 436.61L445.784 436.801H445.783Z" fill="#0B0A0A"/>
<path d="M249.294 576.809L263.017 576.807L269.546 524.154L249.291 524.155L249.294 576.809Z" fill="#FFB6B6"/>
<path d="M245.798 572.35V590.039H290.045V589.482C290.045 584.939 288.23 580.581 285 577.369C281.77 574.156 277.39 572.35 272.822 572.35L264.732 566.25L264.313 566.421L249.66 572.35H245.798Z" fill="#1F1919"/>
<path d="M125.295 559.06L137.577 565.149L167.033 520.922L148.905 511.936L125.295 559.06Z" fill="#FFB6B6"/>
<path d="M116.23 569.353L155.83 588.979L156.078 588.487C157.088 586.474 157.689 584.283 157.848 582.039C158.007 579.794 157.719 577.541 157.002 575.407C156.284 573.274 155.151 571.301 153.667 569.603C152.183 567.906 150.378 566.515 148.353 565.512L143.846 556.469L143.372 556.437L127.623 555.228L127.3 555.067L124.159 553.516L116.23 569.353Z" fill="#1F1919"/>
<path d="M258.602 293.797L182.929 296.432L182.402 295.67C182.402 295.67 175.947 310.652 175.947 323.493C175.947 327.763 178.932 355.688 177.415 360.971C177.226 361.628 178.525 363.238 178.099 366.298C177.823 368.283 176.298 366.756 175.947 369.508C175.696 371.484 178.38 372.574 178.099 374.859C177.792 377.355 174.1 385.441 173.768 388.218C170.23 417.781 165.52 460.609 165.52 460.609C165.52 460.609 146.6 511.016 142.598 511.834C135.88 513.209 131.345 525.359 135.067 527.886C136.84 529.09 159.751 537.184 159.751 537.184C161.01 537.411 164.948 535.446 162.439 530.799C161.977 529.944 164.732 532.121 165.189 531.097C165.676 530.008 164.721 525.674 165.278 524.466C170.285 513.611 177.973 498.569 185.258 490.845C196.022 479.433 202.838 464.899 204.713 449.362L221.423 357.197L227.15 383.042L231.888 387.7L230.588 398.561L230.813 409.103L242.646 452.978C242.646 452.978 244.421 534.915 241.57 537.517C240.027 538.927 233.476 556.285 245.874 557.85L268.399 556.121C268.399 556.121 271.434 549.759 269.916 547.495C268.399 545.23 268.49 545.849 270.341 542.143C272.193 538.438 271.434 532.159 271.434 532.159C274.384 502.651 275.549 472.993 274.92 443.347C273.791 394.653 266.948 338.713 266.948 337.573C266.891 336.408 267.106 335.246 267.578 334.178V331.104L264.672 320.214L258.602 293.797Z" fill="#1F1919"/>
<path d="M160.633 321.177C159.998 320.098 159.609 318.894 159.493 317.65C159.377 316.406 159.536 315.151 159.96 313.975C160.384 312.798 161.062 311.729 161.947 310.841C162.831 309.954 163.9 309.27 165.079 308.838L164.536 254.752L177.947 263.192L176.405 314.453C177.003 316.471 176.837 318.638 175.936 320.542C175.036 322.445 173.465 323.955 171.521 324.784C169.577 325.612 167.395 325.703 165.388 325.038C163.381 324.373 161.689 322.999 160.633 321.177Z" fill="#FFB8B8"/>
<path d="M163.694 298.504L164.836 298.449L164.972 298.453L169.195 298.438L176.152 298.423L176.656 298.416L176.882 298.459L179.257 298.87L179.356 298.236L183.985 289.441L187.544 284.571L186.249 278.833L183.695 275.669L188.033 270.44L188.581 267.858L192.211 250.875L204.245 194.545L204.246 194.511L204.499 193.316L208.412 175.016L207.207 170.415L205.863 165.363C205.004 162.156 203.012 159.364 200.252 157.498C199.054 156.692 197.735 156.079 196.345 155.683C194.573 155.161 192.712 155.009 190.878 155.235L190.857 155.242C189.817 155.37 188.794 155.616 187.809 155.974L187.417 156.127C186.872 156.347 186.341 156.601 185.828 156.888C184.239 157.767 182.841 158.952 181.716 160.374C180.591 161.795 179.762 163.425 179.276 165.169L166.526 179.298L164.283 187.292L163.561 189.86L161.25 203.547L161.285 257.409L160.873 259.849L160.288 273.371L162.575 276.471L159.991 280.229L159.902 282.291L159.885 282.822L163.336 286.308L163.556 293.825L163.694 298.504Z" fill="#792E2E"/>
<path d="M176.15 311.405C195.257 314.693 208.069 313.441 215.954 301.774C226.241 288.745 244.948 304.13 260.732 309.85L262.603 307.838L265.788 304.425L262.862 301.129L265.788 294.772L263.346 286.928L260.226 286.361L261.065 279.608L262.377 275.66L258.526 271.454L255.256 260.956L257.612 238.987C260.836 208.873 254.589 178.505 239.732 152.071L230.792 144.088L227.081 140.771L222.1 131.525L216.839 132.135L202.596 133.772L202.112 134.928L198.616 143.318L185.914 156.889C184.118 158.809 182.753 161.087 181.91 163.572C181.067 166.057 180.766 168.692 181.026 171.301L181.392 174.961L181.661 177.594L182.931 190.264L188.105 242.026L188.492 244.776L192.656 274.536C185.889 281.042 185.477 279.623 182.605 291.073C182.282 292.347 178.538 295.182 178.302 296.424C177.968 298.179 176.15 311.405 176.15 311.405Z" fill="#CF2D2D"/>
<path d="M214.944 126.071C228.607 126.071 239.683 115.053 239.683 101.462C239.683 87.8709 228.607 76.8532 214.944 76.8532C201.281 76.8532 190.205 87.8709 190.205 101.462C190.205 115.053 201.281 126.071 214.944 126.071Z" fill="#FFB6B6"/>
<path d="M189.062 82.9371C192.382 79.4979 197.687 77.8016 202.191 79.4336C203.198 76.5666 204.977 74.0293 207.333 72.0982C209.69 70.167 212.534 68.916 215.556 68.4814C218.577 68.0467 221.661 68.445 224.471 69.633C227.281 70.821 229.71 72.753 231.492 75.2188C232.307 74.8547 233.203 74.7062 234.093 74.7875C234.982 74.8688 235.836 75.1773 236.57 75.683C238.029 76.7148 239.204 78.0942 239.988 79.6947C242.011 83.517 242.954 87.8133 242.716 92.1262C242.479 96.4392 241.07 100.607 238.64 104.187C239.609 102.243 236.887 105.592 234.233 104.714C231.955 104.12 222.594 98.1493 220.257 98.4512C217.921 98.7531 217.164 96.8792 214.878 96.311C212.64 95.5989 206.927 104.803 205.781 110.893C205.564 112.047 205.038 113.481 203.857 113.507C202.404 113.54 201.969 111.469 200.743 110.692C200.165 110.399 199.496 110.342 198.876 110.531C198.257 110.719 197.735 111.14 197.421 111.705C197.134 112.284 196.991 112.924 197.003 113.57C197.015 114.216 197.183 114.849 197.491 115.418C198.117 116.549 198.923 117.571 199.877 118.446L199.242 118.793C198.617 119.239 197.855 119.454 197.088 119.402C196.321 119.35 195.596 119.034 195.037 118.509C192.674 119.569 186.248 113.589 187.101 109.972C185.307 105.537 184.325 100.818 184.204 96.0392C184.105 91.2189 185.84 86.5392 189.062 82.9371Z" fill="#1F1919"/>
<path d="M370.537 229.624C369.339 230 368.073 230.109 366.827 229.945C365.582 229.781 364.388 229.348 363.329 228.675C362.27 228.003 361.372 227.107 360.699 226.052C360.026 224.997 359.593 223.808 359.432 222.569L306.3 211.073L317.553 199.942L367.453 212.832C369.565 212.701 371.651 213.344 373.317 214.64C374.983 215.937 376.113 217.796 376.493 219.866C376.873 221.935 376.477 224.072 375.379 225.871C374.281 227.669 372.559 229.004 370.537 229.624Z" fill="#FFB8B8"/>
<path d="M226.95 153.325C223.87 153.437 220.916 154.567 218.554 156.535C217.246 157.613 216.156 158.928 215.341 160.409C214.444 162.016 213.884 163.788 213.696 165.616L213.697 165.627C213.421 168.32 213.954 171.034 215.227 173.426C216.501 175.819 218.458 177.782 220.852 179.069L238.355 188.504L240.572 189.697C255.485 204.817 280.632 212.72 309.561 217.964L326.193 222.49L331.784 220.425L333.137 225.713L338.705 225.894L341.732 225.268L348.066 222.797L349.276 220.377L349.275 220.367L351.875 208.895L351.892 208.819L351.892 208.808L352.498 206.184L348.926 204.54L345.819 200.411L340.2 200.523L335.075 200.967L333.574 197.473L268.641 167.585L255.197 161.39L255.163 161.37L254.523 161.071L236.984 152.999L232.208 153.15L226.95 153.325Z" fill="#792E2E"/>
<path d="M368.843 242.941C374.691 242.941 379.432 238.225 379.432 232.407C379.432 226.59 374.691 221.874 368.843 221.874C362.995 221.874 358.254 226.59 358.254 232.407C358.254 238.225 362.995 242.941 368.843 242.941Z" fill="#FF0000"/>
<path d="M301.157 591.671L1.28093 592C0.941208 592 0.615389 591.866 0.37517 591.627C0.134951 591.388 0 591.064 0 590.726C0 590.388 0.134951 590.064 0.37517 589.825C0.615389 589.586 0.941208 589.452 1.28093 589.452L301.157 589.123C301.496 589.124 301.821 589.258 302.06 589.497C302.3 589.736 302.434 590.06 302.434 590.397C302.434 590.734 302.3 591.058 302.06 591.297C301.821 591.535 301.496 591.67 301.157 591.671Z" fill="#CACACA"/>
<path d="M551.062 71.5062H494.046C492.762 71.5062 491.53 70.9988 490.622 70.0957C489.715 69.1926 489.204 67.9678 489.204 66.6906C489.204 65.4134 489.715 64.1886 490.622 63.2855C491.53 62.3824 492.762 61.8751 494.046 61.8751H551.062C552.346 61.8751 553.578 62.3824 554.485 63.2855C555.393 64.1886 555.903 65.4134 555.903 66.6906C555.903 67.9678 555.393 69.1926 554.485 70.0957C553.578 70.9988 552.346 71.5062 551.062 71.5062Z" fill="#0B0A0A"/>
<path d="M730.648 30.613C728.304 30.613 726.012 29.9215 724.063 28.6259C722.114 27.3304 720.594 25.489 719.697 23.3346C718.8 21.1802 718.565 18.8096 719.023 16.5225C719.48 14.2354 720.609 12.1346 722.267 10.4857C723.924 8.83681 726.036 7.71389 728.335 7.25896C730.635 6.80403 733.018 7.03752 735.184 7.92989C737.349 8.82227 739.201 10.3335 740.503 12.2724C741.805 14.2113 742.5 16.4908 742.5 18.8227C742.5 21.9497 741.252 24.9486 739.029 27.1597C736.806 29.3708 733.791 30.613 730.648 30.613Z" fill="#0B0A0A"/>
</g>
<defs>
<clipPath id="clip0_2_3">
<rect width="756" height="592" fill="white"/>
</clipPath>
</defs>
</svg>
