<?xml version="1.0" encoding="utf-8"?>

<svg width="26px" height="26px" version="1.1" id="Icons" xmlns="http://www.w3.org/2000/svg" xmlns:xlink="http://www.w3.org/1999/xlink" x="0px" y="0px"
	 viewBox="0 0 32 32" style="enable-background:new 0 0 32 32;" xml:space="preserve">
<path d="M24,16h-4h-8H8c-0.6,0-1,0.4-1,1v1.5c0,2.9,2.2,5.2,5,5.5c0.7,1,1.8,1.7,3,1.9V28h-1c-0.6,0-1,0.4-1,1s0.4,1,1,1h4
	c0.6,0,1-0.4,1-1s-0.4-1-1-1h-1v-2.1c1.2-0.2,2.3-1,3-1.9c2.8-0.3,5-2.6,5-5.5V17C25,16.4,24.6,16,24,16z M9,18.5V18h2v3
	c0,0.2,0,0.4,0.1,0.7C9.9,21.1,9,19.9,9,18.5z M23,18.5c0,1.4-0.9,2.6-2.1,3.2c0-0.2,0.1-0.4,0.1-0.7v-3h2V18.5z"/>
<path d="M27,4H5C3.3,4,2,5.3,2,7v18c0,1.7,1.3,3,3,3h6.2c0.2-0.5,0.5-0.9,0.8-1.3c-0.4-0.3-0.7-0.6-1.1-0.9c-3.5-0.7-6-3.8-6-7.4V17
	c0-1.7,1.3-3,3-3h16c1.7,0,3,1.3,3,3v1.5c0,3.6-2.5,6.6-6,7.4c-0.3,0.3-0.7,0.6-1.1,0.9c0.4,0.3,0.7,0.8,0.8,1.3H27c1.7,0,3-1.3,3-3
	V7C30,5.3,28.7,4,27,4z M7.9,8.4C7.9,8.5,7.8,8.6,7.7,8.7C7.5,8.9,7.3,9,7,9S6.5,8.9,6.3,8.7C6.1,8.5,6,8.3,6,8
	c0-0.3,0.1-0.5,0.3-0.7c0,0,0.1-0.1,0.1-0.1c0.1,0,0.1-0.1,0.2-0.1C6.7,7,6.7,7,6.8,7c0.1,0,0.3,0,0.4,0c0.1,0,0.1,0,0.2,0.1
	c0.1,0,0.1,0.1,0.2,0.1c0,0,0.1,0.1,0.1,0.1c0.1,0.1,0.2,0.2,0.2,0.3C8,7.7,8,7.9,8,8C8,8.1,8,8.3,7.9,8.4z M10.7,8.7
	C10.5,8.9,10.3,9,10,9C9.7,9,9.5,8.9,9.3,8.7C9.1,8.5,9,8.3,9,8c0-0.1,0-0.3,0.1-0.4c0.1-0.1,0.1-0.2,0.2-0.3
	c0.1-0.1,0.2-0.2,0.3-0.2C10,6.9,10.4,7,10.7,7.3c0.1,0.1,0.2,0.2,0.2,0.3C11,7.7,11,7.9,11,8C11,8.3,10.9,8.5,10.7,8.7z M13.9,8.4
	c-0.1,0.1-0.1,0.2-0.2,0.3C13.5,8.9,13.3,9,13,9c-0.1,0-0.3,0-0.4-0.1c-0.1-0.1-0.2-0.1-0.3-0.2c-0.1-0.1-0.2-0.2-0.2-0.3
	C12,8.3,12,8.1,12,8c0-0.1,0-0.3,0.1-0.4c0.1-0.1,0.1-0.2,0.2-0.3c0.4-0.4,1-0.4,1.4,0c0.1,0.1,0.2,0.2,0.2,0.3C14,7.7,14,7.9,14,8
	C14,8.1,14,8.3,13.9,8.4z"/>
</svg>
