<svg fill="" width="26px" height="26px" viewBox="-1.01 0 5.75 5.75" style="shape-rendering:geometricPrecision; text-rendering:geometricPrecision; image-rendering:optimizeQuality; fill-rule:evenodd; clip-rule:evenodd;" version="1.1" xml:space="preserve" xmlns="http://www.w3.org/2000/svg" xmlns:xlink="http://www.w3.org/1999/xlink"><defs><style type="text/css"></style></defs><g id="Layer_x0020_1"><path class="fil0" d="M0.54 0.9l0 2.82c0,0.02 0.72,0.68 1.18,1.1l0 0 0.18 0.17 0.23 -0.23c0.43,-0.43 1.05,-1.03 1.05,-1.04l0 -2.82c0,-0.1 -0.04,-0.19 -0.1,-0.25 -0.07,-0.07 -0.16,-0.11 -0.26,-0.11l-1.92 0c-0.1,0 -0.19,0.04 -0.25,0.11 -0.07,0.06 -0.11,0.15 -0.11,0.25zm1.37 0.35l0.27 0.55c0.01,0.01 0.02,0.02 0.04,0.02l0.59 0.09c0.03,0.01 0.04,0.02 0.05,0.04 0,0.02 0,0.04 -0.02,0.05l-0.43 0.43c-0.01,0.01 -0.02,0.03 -0.01,0.04l0.1 0.6c0,0.02 -0.01,0.04 -0.02,0.05 -0.02,0.01 -0.04,0.01 -0.06,0l-0.53 -0.27c-0.02,-0.01 -0.04,-0.01 -0.05,0l-0.54 0.27c-0.02,0.01 -0.04,0.01 -0.06,0 -0.01,-0.01 -0.02,-0.03 -0.02,-0.05l0.1 -0.6c0.01,-0.01 0,-0.03 -0.01,-0.04l-0.43 -0.43c-0.02,-0.01 -0.02,-0.03 -0.02,-0.05 0.01,-0.02 0.03,-0.03 0.05,-0.04l0.59 -0.09c0.02,0 0.04,-0.01 0.04,-0.02l0.27 -0.55c0.01,-0.01 0.03,-0.02 0.05,-0.02 0.02,0 0.04,0.01 0.05,0.02zm-1.91 2.47l0 -2.82c0,-0.25 0.1,-0.47 0.26,-0.64 0.17,-0.16 0.39,-0.26 0.64,-0.26l1.92 0c0.25,0 0.47,0.1 0.64,0.26 0.16,0.17 0.26,0.39 0.26,0.64l0 2.82c0,0.21 -0.72,0.92 -1.21,1.42 -0.2,0.19 -0.36,0.35 -0.41,0.4l-0.19 0.21 -0.2 -0.2c-0.06,-0.06 -0.19,-0.18 -0.36,-0.33l0 0c-0.52,-0.48 -1.35,-1.24 -1.35,-1.5z"/></g></svg>