<svg fill="black" width="26px" height="26px" viewBox="0 -0.38 4.35 4.35" style="shape-rendering:geometricPrecision; text-rendering:geometricPrecision; image-rendering:optimizeQuality; fill-rule:evenodd; clip-rule:evenodd; margin-top: -1px; margin-right: 10px;" version="1.1" xml:space="preserve" xmlns="http://www.w3.org/2000/svg" xmlns:xlink="http://www.w3.org/1999/xlink"><defs><style type="text/css"></style></defs><g id="Layer_x0020_1"><path class="fil0" d="M2.28 0.07l2.07 1.29 -0.22 0.14 0 0.93 -0.31 0 0 -0.73 -0.69 0.43c0.08,0.04 0.14,0.09 0.2,0.14 0.15,0.13 0.24,0.3 0.24,0.47 0,0.26 -0.18,0.48 -0.46,0.63 -0.24,0.13 -0.57,0.21 -0.94,0.21 -0.36,0 -0.69,-0.08 -0.93,-0.21 -0.28,-0.15 -0.46,-0.37 -0.46,-0.63 0,-0.17 0.08,-0.33 0.22,-0.46 0.06,-0.06 0.14,-0.11 0.22,-0.15l-1.22 -0.77 2.17 -1.36 0.11 0.07zm0.44 2.31l-0.55 0.34 -0.54 -0.34c-0.15,0.05 -0.28,0.12 -0.36,0.19 -0.06,0.06 -0.09,0.12 -0.09,0.17 0,0.1 0.09,0.2 0.24,0.28 0.19,0.1 0.46,0.17 0.75,0.17 0.3,0 0.57,-0.07 0.75,-0.17 0.15,-0.08 0.25,-0.18 0.25,-0.28 0,-0.06 -0.04,-0.12 -0.1,-0.18 -0.08,-0.07 -0.2,-0.13 -0.35,-0.18zm0.25 -1.41l-0.8 -0.5 -1.42 0.89 1.42 0.9 1.43 -0.9 -0.63 -0.39z"/></g></svg>