<svg width="64px" height="64px" viewBox="0 0 64 64" fill="none" xmlns="http://www.w3.org/2000/svg">
<path d="M12 16.5474C12 14.4227 13.3428 12.53 15.3482 11.8281L30.3482 6.57811C31.4176 6.20384 32.5824 6.20384 33.6518 6.57811L48.6518 11.8281C50.6572 12.53 52 14.4227 52 16.5474V43C52 45.7614 49.7614 48 47 48H17C14.2386 48 12 45.7614 12 43V16.5474Z" fill="#0F277F"/>
<circle cx="32" cy="14" r="3" fill="#FDAFA4"/>
<path d="M19 37C19 35.3431 20.3431 34 22 34H42C43.6569 34 45 35.3431 45 37V45C45 52.1797 39.1797 58 32 58C24.8203 58 19 52.1797 19 45V37Z" fill="#FDAFA4"/>
<path fill-rule="evenodd" clip-rule="evenodd" d="M21.5012 52.668L26.0658 34H30.0658L24.7391 55.7849C23.4878 54.9408 22.3913 53.8847 21.5012 52.668ZM28.3262 57.4736C27.6947 57.2879 27.0832 57.0556 26.4956 56.7806L32.0658 34H34.0658L28.3262 57.4736Z" fill="white"/>
<path d="M38 30C38 28.4087 37.3679 26.8826 36.2426 25.7574C35.1174 24.6321 33.5913 24 32 24C30.4087 24 28.8826 24.6321 27.7574 25.7574C26.6321 26.8826 26 28.4087 26 30" stroke="#FDAFA4" stroke-width="3" stroke-linecap="round"/>
<path fill-rule="evenodd" clip-rule="evenodd" d="M33.803 46.2122C33.6994 45.7976 33.8838 45.3735 34.1777 45.0634C34.6874 44.5257 35 43.7993 35 43C35 41.3431 33.6569 40 32 40C30.3431 40 29 41.3431 29 43C29 43.7993 29.3126 44.5257 29.8223 45.0634C30.1162 45.3735 30.3006 45.7976 30.197 46.2121L29.3106 49.7575C29.1528 50.3886 29.6302 51 30.2808 51H33.7192C34.3698 51 34.8472 50.3886 34.6894 49.7575L33.803 46.2122Z" fill="#0F277F"/>
</svg>
