<svg width="200" height="200" viewBox="0 0 745 748" fill="none" xmlns="http://www.w3.org/2000/svg">
<g clip-path="url(#clip0_2_165)">
<path d="M71.629 629.347L65.069 603.475C53.4379 598.546 41.538 594.276 29.426 590.687L28.598 602.711L25.24 589.464C10.219 585.17 0 583.281 0 583.281C0 583.281 13.8 635.77 42.754 675.898L76.488 681.824L50.281 685.603C53.9231 689.985 57.8371 694.134 62 698.025C104.115 737.117 151.024 755.053 166.773 738.085C182.522 721.117 161.148 675.673 119.033 636.585C105.977 624.466 89.576 614.741 73.158 607.085L71.629 629.347Z" fill="#1BCAB0"/>
<path d="M134.015 601.245L141.773 575.707C134.365 565.475 126.386 555.669 117.873 546.336L110.949 556.201L114.921 543.125C104.28 531.689 96.509 524.79 96.509 524.79C96.509 524.79 81.194 576.857 85.234 626.174L111.049 648.684L86.657 638.372C87.5105 644.007 88.7175 649.583 90.271 655.066C106.117 710.3 137.002 749.901 159.254 743.517C181.506 737.133 186.7 687.182 170.854 631.948C165.942 614.825 156.928 598.022 146.831 582.983L134.015 601.245Z" fill="#1BCAB0"/>
<path d="M519.751 176.983H515.659V64.883C515.659 56.3624 513.981 47.9253 510.72 40.0534C507.459 32.1814 502.68 25.0287 496.655 19.0038C490.63 12.9788 483.478 8.19959 475.606 4.93892C467.734 1.67824 459.297 0 450.776 0H213.269C196.061 0 179.558 6.83587 167.39 19.0038C155.222 31.1717 148.386 47.675 148.386 64.883V679.883C148.386 688.404 150.064 696.841 153.325 704.713C156.586 712.585 161.365 719.737 167.39 725.762C173.415 731.787 180.567 736.566 188.439 739.827C196.311 743.088 204.748 744.766 213.269 744.766H450.776C467.984 744.766 484.487 737.93 496.655 725.762C508.822 713.594 515.658 697.091 515.658 679.883V256.778H519.75L519.751 176.983Z" fill="black"/>
<path d="M447.105 17H416.105C417.531 20.4956 418.075 24.2882 417.69 28.0437C417.304 31.7991 416.001 35.4022 413.895 38.5354C411.789 41.6686 408.945 44.2358 405.613 46.0108C402.281 47.7858 398.564 48.7141 394.789 48.714H258.724C254.949 48.7138 251.232 47.7852 247.9 46.0101C244.569 44.235 241.725 41.6677 239.619 38.5346C237.513 35.4014 236.211 31.7985 235.825 28.0432C235.44 24.2879 235.984 20.4954 237.41 17H208.454C195.603 17 183.279 22.105 174.192 31.1918C165.105 40.2787 160 52.6032 160 65.454V679.561C160 692.412 165.105 704.736 174.192 713.823C183.279 722.91 195.603 728.015 208.454 728.015H447.105C459.956 728.015 472.28 722.91 481.367 713.823C490.454 704.736 495.559 692.412 495.559 679.561V679.561V65.453C495.559 52.6024 490.454 40.2782 481.367 31.1915C472.28 22.1048 459.956 17 447.105 17V17Z" fill="white"/>
<path d="M303.658 261.503C303.657 257.21 304.787 252.993 306.934 249.276C309.081 245.559 312.169 242.473 315.888 240.329C312.171 238.182 307.955 237.052 303.663 237.052C299.37 237.051 295.154 238.18 291.436 240.326C287.719 242.472 284.632 245.559 282.486 249.276C280.34 252.993 279.21 257.209 279.21 261.502C279.21 265.794 280.34 270.01 282.486 273.727C284.632 277.444 287.719 280.531 291.436 282.677C295.154 284.823 299.37 285.952 303.663 285.952C307.955 285.951 312.171 284.821 315.888 282.674C312.17 280.53 309.081 277.445 306.934 273.728C304.788 270.012 303.657 265.795 303.658 261.503V261.503Z" fill="#1BCAB0" fill-opacity="0.28"/>
<path d="M334.395 261.503C334.394 257.21 335.524 252.993 337.671 249.276C339.818 245.559 342.906 242.473 346.625 240.329C342.908 238.182 338.692 237.052 334.4 237.052C330.107 237.051 325.891 238.18 322.173 240.326C318.456 242.472 315.369 245.559 313.223 249.276C311.077 252.993 309.947 257.209 309.947 261.502C309.947 265.794 311.077 270.01 313.223 273.727C315.369 277.444 318.456 280.531 322.173 282.677C325.891 284.823 330.107 285.952 334.4 285.952C338.692 285.951 342.908 284.821 346.625 282.674C342.907 280.53 339.818 277.445 337.671 273.728C335.524 270.012 334.394 265.795 334.395 261.503V261.503Z" fill="#1BCAB0"/>
<path d="M364.434 285.952C377.937 285.952 388.884 275.005 388.884 261.502C388.884 247.999 377.937 237.052 364.434 237.052C350.931 237.052 339.984 247.999 339.984 261.502C339.984 275.005 350.931 285.952 364.434 285.952Z" fill="#1BCAB0"/>
<path d="M405.296 337.869H262.796C261.439 337.867 260.139 337.328 259.179 336.369C258.22 335.409 257.681 334.109 257.679 332.752V190.252C257.681 188.895 258.22 187.595 259.179 186.635C260.139 185.676 261.439 185.137 262.796 185.135H405.296C406.653 185.137 407.953 185.676 408.912 186.635C409.872 187.595 410.411 188.895 410.413 190.252V332.752C410.411 334.109 409.872 335.409 408.912 336.369C407.953 337.328 406.653 337.867 405.296 337.869V337.869ZM262.796 187.183C261.982 187.184 261.202 187.508 260.626 188.083C260.05 188.659 259.727 189.439 259.726 190.253V332.753C259.727 333.567 260.05 334.347 260.626 334.923C261.202 335.499 261.982 335.822 262.796 335.823H405.296C406.11 335.822 406.89 335.499 407.466 334.923C408.041 334.347 408.365 333.567 408.366 332.753V190.253C408.365 189.439 408.041 188.659 407.466 188.083C406.89 187.508 406.11 187.184 405.296 187.183H262.796Z" fill="#CCCCCC"/>
<path d="M437.114 447.102H218.562V449.149H437.114V447.102Z" fill="#CCCCCC"/>
<path d="M225.464 434.322C229.276 434.322 232.366 431.232 232.366 427.42C232.366 423.608 229.276 420.518 225.464 420.518C221.652 420.518 218.562 423.608 218.562 427.42C218.562 431.232 221.652 434.322 225.464 434.322Z" fill="#1BCAB0" fill-opacity="0.33"/>
<path d="M437.114 516.118H218.562V518.165H437.114V516.118Z" fill="#CCCCCC"/>
<path d="M225.464 503.339C229.276 503.339 232.366 500.249 232.366 496.437C232.366 492.625 229.276 489.535 225.464 489.535C221.652 489.535 218.562 492.625 218.562 496.437C218.562 500.249 221.652 503.339 225.464 503.339Z" fill="#1BCAB0" fill-opacity="0.33"/>
<path d="M430.91 595H322.09C320.21 594.999 318.408 594.527 317.079 593.689C315.75 592.85 315.002 591.714 315 590.528V566.472C315.002 565.286 315.75 564.15 317.079 563.311C318.408 562.473 320.21 562.001 322.09 562H430.91C432.79 562.001 434.592 562.473 435.921 563.311C437.25 564.15 437.998 565.286 438 566.472V590.528C437.998 591.714 437.25 592.85 435.921 593.689C434.592 594.527 432.79 594.999 430.91 595Z" fill="#1BCAB0"/>
<path d="M247.978 434.322C251.79 434.322 254.88 431.232 254.88 427.42C254.88 423.608 251.79 420.518 247.978 420.518C244.166 420.518 241.076 423.608 241.076 427.42C241.076 431.232 244.166 434.322 247.978 434.322Z" fill="#1BCAB0" fill-opacity="0.56"/>
<path d="M270.492 434.322C274.304 434.322 277.394 431.232 277.394 427.42C277.394 423.608 274.304 420.518 270.492 420.518C266.68 420.518 263.59 423.608 263.59 427.42C263.59 431.232 266.68 434.322 270.492 434.322Z" fill="#1BCAB0"/>
<path d="M247.978 503.339C251.79 503.339 254.88 500.249 254.88 496.437C254.88 492.625 251.79 489.535 247.978 489.535C244.166 489.535 241.076 492.625 241.076 496.437C241.076 500.249 244.166 503.339 247.978 503.339Z" fill="#1BCAB0" fill-opacity="0.56"/>
<path d="M270.492 503.339C274.304 503.339 277.394 500.249 277.394 496.437C277.394 492.625 274.304 489.535 270.492 489.535C266.68 489.535 263.59 492.625 263.59 496.437C263.59 500.249 266.68 503.339 270.492 503.339Z" fill="#1BCAB0"/>
<path d="M742.066 747.077H24.08C22.543 747.077 21.298 746.531 21.298 745.859C21.298 745.187 22.543 744.64 24.08 744.64H742.066C743.602 744.64 744.848 745.186 744.848 745.859C744.848 746.532 743.602 747.077 742.066 747.077Z" fill="#3F3D56"/>
<path d="M564.677 489.461C565.167 489.686 565.639 489.949 566.087 490.249L610.94 471.106L612.541 459.29L630.462 459.181L629.403 486.279L570.204 501.935C570.079 502.346 569.93 502.75 569.756 503.143C568.9 504.969 567.524 506.502 565.8 507.549C564.076 508.595 562.081 509.109 560.065 509.026C558.05 508.942 556.105 508.265 554.473 507.08C552.841 505.894 551.596 504.253 550.894 502.362C550.192 500.471 550.064 498.415 550.527 496.452C550.99 494.489 552.022 492.706 553.495 491.328C554.967 489.95 556.814 489.037 558.804 488.705C560.793 488.373 562.836 488.636 564.677 489.461V489.461Z" fill="#FFB8B8"/>
<path d="M636.98 735.021H624.72L618.888 687.733L636.982 687.734L636.98 735.021Z" fill="#FFB8B8"/>
<path d="M615.963 731.518H639.607V746.405H601.076C601.076 742.456 602.644 738.67 605.436 735.878C608.228 733.086 612.015 731.518 615.963 731.518Z" fill="#2F2E41"/>
<path d="M684.66 731.557L672.459 732.759L662.018 686.271L680.025 684.497L684.66 731.557Z" fill="#FFB8B8"/>
<path d="M663.401 730.131L686.931 727.813L688.391 742.629L650.045 746.406C649.854 744.46 650.047 742.496 650.615 740.625C651.182 738.754 652.113 737.013 653.353 735.502C654.593 733.991 656.119 732.739 657.843 731.817C659.567 730.896 661.456 730.323 663.401 730.131Z" fill="#2F2E41"/>
<path d="M640.393 409.135C653.957 409.135 664.954 398.138 664.954 384.574C664.954 371.009 653.957 360.013 640.393 360.013C626.828 360.013 615.832 371.009 615.832 384.574C615.832 398.138 626.828 409.135 640.393 409.135Z" fill="#FFB8B8"/>
<path d="M621.98 725.458C620.927 725.461 619.906 725.091 619.098 724.415C618.291 723.738 617.748 722.798 617.565 721.761C611.22 686.535 590.477 571.355 589.981 568.165C589.97 568.092 589.965 568.018 589.966 567.943V559.355C589.965 559.043 590.063 558.738 590.245 558.483L592.985 554.645C593.115 554.461 593.286 554.309 593.484 554.2C593.683 554.092 593.903 554.03 594.129 554.02C609.751 553.288 660.913 551.142 663.385 554.23C665.867 557.333 664.99 566.736 664.789 568.59L664.799 568.783L687.784 715.778C687.964 716.951 687.675 718.147 686.98 719.108C686.285 720.069 685.239 720.717 684.069 720.913L669.713 723.278C668.644 723.45 667.548 723.232 666.626 722.665C665.704 722.097 665.016 721.217 664.687 720.186C660.247 705.997 645.358 658.268 640.198 639.799C640.166 639.682 640.092 639.581 639.991 639.514C639.889 639.448 639.767 639.42 639.647 639.437C639.527 639.454 639.417 639.514 639.338 639.606C639.259 639.698 639.216 639.816 639.218 639.938C639.476 657.543 640.099 702.461 640.313 717.975L640.337 719.645C640.346 720.777 639.931 721.87 639.173 722.71C638.416 723.55 637.37 724.075 636.244 724.182L622.4 725.439C622.26 725.452 622.119 725.458 621.98 725.458Z" fill="#2F2E41"/>
<path d="M624.805 418.792C620.519 421.34 617.954 426.023 616.482 430.787C613.757 439.609 612.117 448.729 611.598 457.947L610.042 485.547L590.787 558.717C607.476 572.838 617.102 569.629 639.568 558.078C662.033 546.528 664.6 561.929 664.6 561.929L669.092 499.671L675.511 431.639C674.07 429.904 672.439 428.336 670.649 426.964C664.716 422.351 657.814 419.145 650.462 417.587C643.11 416.028 635.501 416.159 628.207 417.969L624.805 418.792Z" fill="#1BCAB0"/>
<path d="M618.551 504.239C619.069 504.434 619.57 504.669 620.051 504.943L664.4 482.746L665.136 470.72L683.429 469.459L684.41 496.872L625.144 516.471C624.66 518.547 623.556 520.426 621.978 521.858C620.4 523.291 618.423 524.209 616.311 524.491C614.198 524.773 612.05 524.405 610.151 523.436C608.253 522.468 606.695 520.944 605.683 519.068C604.672 517.192 604.256 515.052 604.49 512.934C604.724 510.815 605.598 508.819 606.995 507.209C608.392 505.599 610.246 504.453 612.31 503.922C614.374 503.392 616.551 503.502 618.551 504.239Z" fill="#FFB8B8"/>
<path d="M675.19 431.95C686.101 435.801 688.023 477.524 688.023 477.524C675.186 470.463 659.782 482.017 659.782 482.017C659.782 482.017 656.573 471.105 652.721 456.985C651.559 453.013 651.419 448.811 652.317 444.771C653.215 440.731 655.12 436.984 657.856 433.878C657.856 433.878 664.278 428.097 675.19 431.95Z" fill="#20C2AA"/>
<path d="M662.415 391.069C659.355 388.621 655.18 393.071 655.18 393.071L652.732 371.037C652.732 371.037 637.431 372.87 627.638 370.426C617.846 367.981 616.316 379.301 616.316 379.301C615.811 374.728 615.708 370.12 616.01 365.53C616.621 360.021 624.578 354.513 638.655 350.841C652.732 347.168 660.076 363.082 660.076 363.082C669.869 367.977 665.475 393.517 662.415 391.069Z" fill="#2F2E41"/>
<path d="M632.426 179.058L617.772 172.661L626.547 153.901C642.758 119.338 628.4 79.3825 594.684 64.4892C560.968 49.5958 520.225 65.9021 504.013 100.465L495.239 119.225L480.522 112.809C474.792 110.489 468.388 110.466 462.641 112.745C456.894 115.024 452.247 119.431 449.665 125.048L392.468 247.014C391.114 249.724 390.318 252.677 390.128 255.7C389.937 258.723 390.357 261.753 391.361 264.611C392.365 267.469 393.933 270.095 395.972 272.335C398.011 274.574 400.48 276.381 403.231 277.648L555.136 343.897C560.919 346.273 567.398 346.313 573.21 344.009C579.022 341.706 583.714 337.238 586.3 331.545L643.475 209.559C644.808 206.84 645.578 203.881 645.742 200.858C645.905 197.834 645.458 194.809 644.427 191.963C643.396 189.116 641.802 186.506 639.74 184.289C637.678 182.072 635.191 180.293 632.426 179.058V179.058ZM531.766 112.48C535.898 103.415 543.378 96.3004 552.639 92.6275C561.9 88.9546 572.222 89.008 581.445 92.7765C585.866 94.7781 589.839 97.6499 593.126 101.22C596.414 104.791 598.948 108.987 600.578 113.558C602.209 118.13 602.902 122.983 602.616 127.828C602.329 132.673 601.07 137.41 598.913 141.758L590.118 160.498L522.971 131.22L531.766 112.48ZM517.818 255.335L503.218 286.477C502.912 287.089 502.382 287.56 501.738 287.792C501.095 288.023 500.386 287.998 499.761 287.721L485.169 281.342C484.621 281.054 484.206 280.565 484.01 279.977C483.815 279.389 483.855 278.748 484.121 278.189L498.557 247.094C494.446 242.782 491.75 237.317 490.83 231.431C489.91 225.544 490.811 219.518 493.411 214.157C496.709 206.939 502.671 201.277 510.05 198.356C517.428 195.435 525.65 195.482 532.995 198.486C536.516 200.082 539.68 202.37 542.297 205.215C544.915 208.059 546.933 211.401 548.232 215.042C549.531 218.683 550.083 222.549 549.856 226.407C549.629 230.266 548.628 234.04 546.911 237.504C544.324 243 540.19 247.622 535.016 250.805C529.842 253.987 523.851 255.59 517.779 255.419L517.818 255.335Z" fill="#1BCAB0"/>
<path d="M617.523 171.945C617.243 172.243 589.712 160.759 555.858 146.056C522.003 131.353 494.495 119.248 494.589 118.935C494.682 118.622 522.379 130.142 556.275 144.843C590.172 159.545 617.677 171.568 617.523 171.945Z" fill="#263238"/>
<path d="M637.988 198.579C637.909 198.852 637.806 199.118 637.682 199.374C637.452 199.96 637.122 200.694 636.737 201.616C635.829 203.692 634.572 206.564 633.007 210.149L618.79 241.651C612.703 254.951 605.513 270.746 597.529 288.283C593.389 296.952 589.372 306.259 584.844 315.767C582.557 320.711 579.37 325.185 575.444 328.962C573.325 330.853 570.853 332.306 568.17 333.239C565.428 334.103 562.545 334.431 559.678 334.202C554.129 333.509 548.725 331.936 543.671 329.542L528.997 323.166L501.241 311.069L454.301 290.52L422.702 276.534L414.309 272.655L412.085 271.606C411.826 271.516 411.585 271.383 411.369 271.214C411.369 271.214 411.54 271.375 412.142 271.459L414.424 272.362L423.077 275.964L454.869 289.49L501.986 309.722L529.759 321.716L544.453 328.071C549.35 330.412 554.594 331.942 559.981 332.6C562.645 332.816 565.325 332.516 567.876 331.717C570.372 330.87 572.668 329.518 574.621 327.746C578.408 324.112 581.482 319.802 583.684 315.037C588.194 305.633 592.357 296.342 596.433 287.613C604.522 270.136 611.731 254.278 617.988 241.138C624.246 227.998 629.152 217.32 632.646 209.849C634.375 206.218 635.737 203.405 636.666 201.308L637.757 199.123C637.814 198.934 637.892 198.751 637.988 198.579V198.579Z" fill="#263238"/>
<path d="M605.638 112.802C605.638 112.802 605.03 111.186 603.744 108.371C601.844 104.43 599.293 100.837 596.199 97.7436C591.63 93.1406 586.096 89.6086 579.997 87.4018C572.53 84.7729 564.472 84.3029 556.749 86.0458C549.017 87.7547 541.977 91.7463 536.54 97.5033C532.138 102.273 528.438 107.644 525.55 113.456C523.011 118.374 521.257 122.544 520.001 125.416C519.425 126.934 518.738 128.407 517.943 129.823C518.299 128.232 518.805 126.679 519.456 125.185C520.586 122.234 522.173 118.027 524.604 112.968C527.389 106.969 531.053 101.419 535.475 96.5018C541.049 90.4625 548.343 86.2821 556.371 84.5268C564.371 82.7152 572.723 83.2419 580.432 86.044C586.675 88.3678 592.302 92.0945 596.878 96.9368C599.977 100.164 602.461 103.929 604.21 108.047C604.661 109.165 605.028 110.315 605.308 111.488C605.486 111.906 605.597 112.349 605.638 112.802V112.802Z" fill="#263238"/>
<path d="M528.235 197.06C528.769 197.174 529.293 197.331 529.801 197.529C531.32 198.051 532.792 198.698 534.204 199.463C536.497 200.621 538.645 202.048 540.601 203.714C543.273 205.969 545.455 208.745 547.015 211.874C550.665 218.918 550.441 229.184 545.921 238.941C543.354 244.044 539.359 248.291 534.423 251.165C529.038 254.259 522.976 255.986 516.769 256.195L517.437 255.74C512.958 266.178 508.114 277.516 503.036 289.317L502.727 290.029L502.014 289.72L495.615 286.752L481.621 280.293L480.928 279.962L481.258 279.27C486.634 267.708 491.171 256.483 496.356 246.148L496.484 246.95C492.646 242.688 490.146 237.392 489.295 231.72C488.477 226.64 488.776 221.443 490.173 216.49C491.385 212.073 493.711 208.042 496.929 204.783C500.234 201.467 504.231 198.923 508.634 197.333C513.038 195.742 517.738 195.145 522.399 195.584C524.353 195.727 526.273 196.178 528.086 196.92C526.212 196.502 524.317 196.181 522.41 195.956C517.099 195.677 511.806 196.765 507.036 199.116C503.297 200.757 499.968 203.204 497.287 206.283C494.607 209.362 492.641 212.996 491.531 216.925C490.224 221.723 489.976 226.749 490.803 231.653C491.623 237.055 494.015 242.096 497.68 246.148L498.042 246.489L497.848 246.909C492.739 257.035 488.163 268.344 482.79 279.988L482.408 278.986L496.402 285.445L502.8 288.372L501.778 288.776C506.878 276.996 511.763 265.656 516.264 255.238L516.564 254.919L517.06 254.904C523.049 254.74 528.91 253.134 534.146 250.223C538.864 247.469 542.684 243.408 545.143 238.53C549.552 229.191 549.868 219.253 546.474 212.449C545.008 209.398 542.941 206.675 540.396 204.444C538.517 202.756 536.453 201.286 534.243 200.062C530.329 197.865 528.157 197.187 528.235 197.06Z" fill="#263238"/>
<path d="M351.451 583H349.309L352.573 573.545H355.149L358.408 583H356.266L353.898 575.706H353.824L351.451 583ZM351.317 579.284H356.377V580.844H351.317V579.284ZM362.383 583.138C361.657 583.138 361.032 582.985 360.509 582.677C359.989 582.366 359.589 581.935 359.309 581.384C359.032 580.833 358.893 580.199 358.893 579.482C358.893 578.756 359.033 578.119 359.313 577.571C359.596 577.02 359.998 576.591 360.518 576.283C361.038 575.972 361.657 575.817 362.374 575.817C362.993 575.817 363.534 575.929 363.999 576.154C364.464 576.378 364.831 576.694 365.102 577.1C365.373 577.506 365.522 577.983 365.55 578.531H363.694C363.642 578.177 363.503 577.893 363.279 577.677C363.057 577.459 362.766 577.349 362.406 577.349C362.102 577.349 361.835 577.433 361.608 577.599C361.383 577.762 361.208 578 361.081 578.314C360.955 578.628 360.892 579.008 360.892 579.455C360.892 579.907 360.954 580.292 361.077 580.609C361.203 580.926 361.38 581.167 361.608 581.333C361.835 581.5 362.102 581.583 362.406 581.583C362.631 581.583 362.833 581.537 363.011 581.444C363.193 581.352 363.342 581.218 363.459 581.043C363.579 580.864 363.657 580.65 363.694 580.401H365.55C365.519 580.943 365.372 581.42 365.107 581.832C364.845 582.241 364.484 582.561 364.022 582.792C363.56 583.023 363.014 583.138 362.383 583.138ZM370.041 583.138C369.311 583.138 368.684 582.991 368.157 582.695C367.634 582.397 367.231 581.975 366.948 581.43C366.665 580.883 366.523 580.235 366.523 579.487C366.523 578.757 366.665 578.117 366.948 577.566C367.231 577.016 367.629 576.586 368.143 576.278C368.66 575.971 369.267 575.817 369.962 575.817C370.43 575.817 370.866 575.892 371.269 576.043C371.675 576.191 372.029 576.414 372.331 576.712C372.635 577.011 372.872 577.386 373.041 577.839C373.211 578.288 373.295 578.814 373.295 579.418V579.958H367.308V578.739H371.444C371.444 578.456 371.383 578.205 371.259 577.987C371.136 577.768 370.966 577.597 370.747 577.474C370.532 577.348 370.281 577.285 369.995 577.285C369.696 577.285 369.431 577.354 369.201 577.493C368.973 577.628 368.794 577.811 368.665 578.042C368.536 578.27 368.47 578.524 368.467 578.804V579.962C368.467 580.313 368.531 580.616 368.66 580.872C368.793 581.127 368.979 581.324 369.219 581.463C369.459 581.601 369.744 581.67 370.073 581.67C370.292 581.67 370.492 581.64 370.673 581.578C370.855 581.517 371.01 581.424 371.139 581.301C371.269 581.178 371.367 581.027 371.435 580.849L373.254 580.969C373.161 581.406 372.972 581.787 372.686 582.114C372.403 582.437 372.037 582.689 371.587 582.871C371.141 583.049 370.626 583.138 370.041 583.138ZM380.479 577.931L378.678 578.042C378.647 577.888 378.581 577.75 378.48 577.626C378.378 577.5 378.244 577.4 378.078 577.326C377.915 577.249 377.719 577.211 377.492 577.211C377.187 577.211 376.93 577.276 376.721 577.405C376.512 577.531 376.407 577.7 376.407 577.913C376.407 578.082 376.475 578.225 376.61 578.342C376.745 578.459 376.978 578.553 377.307 578.624L378.59 578.882C379.28 579.024 379.794 579.251 380.132 579.565C380.471 579.879 380.64 580.292 380.64 580.803C380.64 581.267 380.503 581.675 380.229 582.026C379.958 582.377 379.586 582.651 379.112 582.848C378.641 583.042 378.098 583.138 377.483 583.138C376.544 583.138 375.796 582.943 375.239 582.552C374.685 582.158 374.36 581.623 374.265 580.946L376.199 580.844C376.258 581.13 376.399 581.349 376.624 581.5C376.849 581.647 377.136 581.721 377.487 581.721C377.832 581.721 378.109 581.655 378.318 581.523C378.53 581.387 378.638 581.213 378.641 581.001C378.638 580.823 378.563 580.676 378.415 580.562C378.267 580.446 378.04 580.356 377.732 580.295L376.504 580.05C375.811 579.912 375.296 579.672 374.957 579.33C374.622 578.988 374.454 578.553 374.454 578.023C374.454 577.568 374.577 577.176 374.823 576.846C375.073 576.517 375.422 576.263 375.871 576.085C376.324 575.906 376.853 575.817 377.459 575.817C378.355 575.817 379.06 576.006 379.574 576.385C380.091 576.763 380.392 577.279 380.479 577.931ZM387.778 577.931L385.978 578.042C385.947 577.888 385.881 577.75 385.779 577.626C385.678 577.5 385.544 577.4 385.378 577.326C385.215 577.249 385.019 577.211 384.792 577.211C384.487 577.211 384.23 577.276 384.021 577.405C383.811 577.531 383.707 577.7 383.707 577.913C383.707 578.082 383.774 578.225 383.91 578.342C384.045 578.459 384.278 578.553 384.607 578.624L385.89 578.882C386.58 579.024 387.094 579.251 387.432 579.565C387.771 579.879 387.94 580.292 387.94 580.803C387.94 581.267 387.803 581.675 387.529 582.026C387.258 582.377 386.886 582.651 386.412 582.848C385.941 583.042 385.398 583.138 384.782 583.138C383.844 583.138 383.096 582.943 382.539 582.552C381.985 582.158 381.66 581.623 381.565 580.946L383.499 580.844C383.557 581.13 383.699 581.349 383.924 581.5C384.148 581.647 384.436 581.721 384.787 581.721C385.132 581.721 385.409 581.655 385.618 581.523C385.83 581.387 385.938 581.213 385.941 581.001C385.938 580.823 385.863 580.676 385.715 580.562C385.567 580.446 385.339 580.356 385.032 580.295L383.804 580.05C383.111 579.912 382.596 579.672 382.257 579.33C381.922 578.988 381.754 578.553 381.754 578.023C381.754 577.568 381.877 577.176 382.123 576.846C382.373 576.517 382.722 576.263 383.171 576.085C383.624 575.906 384.153 575.817 384.759 575.817C385.655 575.817 386.36 576.006 386.874 576.385C387.391 576.763 387.692 577.279 387.778 577.931ZM391.2 583.134C390.748 583.134 390.345 583.055 389.991 582.898C389.637 582.738 389.357 582.503 389.151 582.192C388.948 581.878 388.846 581.487 388.846 581.02C388.846 580.626 388.918 580.295 389.063 580.027C389.208 579.759 389.405 579.544 389.654 579.381C389.903 579.218 390.186 579.094 390.503 579.011C390.823 578.928 391.159 578.87 391.51 578.836C391.922 578.793 392.254 578.753 392.507 578.716C392.759 578.676 392.942 578.617 393.056 578.54C393.17 578.464 393.227 578.35 393.227 578.199V578.171C393.227 577.879 393.135 577.653 392.95 577.493C392.768 577.333 392.51 577.252 392.174 577.252C391.821 577.252 391.539 577.331 391.33 577.488C391.12 577.642 390.982 577.836 390.914 578.07L389.095 577.922C389.188 577.491 389.369 577.119 389.64 576.805C389.911 576.488 390.26 576.245 390.688 576.075C391.119 575.903 391.617 575.817 392.184 575.817C392.578 575.817 392.955 575.863 393.315 575.955C393.678 576.048 393.999 576.191 394.28 576.385C394.563 576.578 394.786 576.828 394.949 577.132C395.112 577.434 395.194 577.796 395.194 578.217V583H393.329V582.017H393.273C393.159 582.238 393.007 582.434 392.816 582.603C392.625 582.769 392.396 582.9 392.128 582.995C391.861 583.088 391.551 583.134 391.2 583.134ZM391.764 581.777C392.053 581.777 392.308 581.72 392.53 581.606C392.752 581.489 392.925 581.332 393.052 581.135C393.178 580.938 393.241 580.715 393.241 580.466V579.713C393.179 579.753 393.095 579.79 392.987 579.824C392.882 579.855 392.764 579.884 392.631 579.912C392.499 579.936 392.367 579.959 392.234 579.981C392.102 579.999 391.982 580.016 391.874 580.032C391.644 580.065 391.442 580.119 391.27 580.193C391.097 580.267 390.963 580.367 390.868 580.493C390.773 580.616 390.725 580.77 390.725 580.955C390.725 581.223 390.822 581.427 391.016 581.569C391.213 581.707 391.462 581.777 391.764 581.777ZM396.719 583V575.909H398.626V577.146H398.7C398.829 576.706 399.046 576.374 399.351 576.149C399.655 575.921 400.006 575.808 400.403 575.808C400.502 575.808 400.608 575.814 400.722 575.826C400.836 575.838 400.936 575.855 401.022 575.877V577.622C400.93 577.594 400.802 577.569 400.639 577.548C400.476 577.526 400.326 577.516 400.191 577.516C399.902 577.516 399.643 577.579 399.415 577.705C399.191 577.828 399.012 578 398.88 578.222C398.751 578.444 398.686 578.699 398.686 578.988V583H396.719Z" fill="white"/>
</g>
<defs>
<clipPath id="clip0_2_165">
<rect width="744.848" height="747.077" fill="white"/>
</clipPath>
</defs>
</svg>
