<svg width="428" height="420" viewBox="0 0 428 420" fill="none" xmlns="http://www.w3.org/2000/svg">
<path d="M427.89 282.2H264V187.36H427.89V282.2ZM265 281.2H426.89V188.36H265V281.2Z" fill="#E0E0E0"/>
<path d="M394.08 237.93H285.95V241.1H394.08V237.93Z" fill="#F0F0F0"/>
<path d="M401.53 249.75H285.95V253.21H401.53V249.75Z" fill="#F0F0F0"/>
<path d="M401.53 261.71H285.95V265.17H401.53V261.71Z" fill="#F0F0F0"/>
<path d="M323.74 220.76H285.95V228.99H323.74V220.76Z" fill="#F0F0F0"/>
<path d="M427.39 187.86H264.53V202.96H427.39V187.86Z" fill="#E0E0E0"/>
<path d="M414.86 200.7C414.65 200.5 416.75 197.97 419.54 195.05C422.33 192.13 424.78 189.92 424.98 190.11C425.18 190.3 423.09 192.84 420.3 195.77C417.51 198.7 415.06 200.9 414.86 200.7Z" fill="white"/>
<path d="M425 200.7C424.8 200.9 422.36 198.7 419.56 195.77C416.76 192.84 414.67 190.31 414.88 190.11C415.09 189.91 417.52 192.11 420.32 195.05C423.12 197.99 425.19 200.5 425 200.7Z" fill="white"/>
<path d="M226.22 0.0499878H63.36V93.9H226.22V0.0499878Z" fill="#E6E6E6"/>
<path d="M192.92 50.13H84.79V53.3H192.92V50.13Z" fill="#F0F0F0"/>
<path d="M200.37 61.95H84.79V65.41H200.37V61.95Z" fill="#F0F0F0"/>
<path d="M200.37 73.91H84.79V77.37H200.37V73.91Z" fill="#F0F0F0"/>
<path d="M122.58 32.96H84.79V41.19H122.58V32.96Z" fill="#F0F0F0"/>
<path d="M226.22 0.0499878H63.36V15.15H226.22V0.0499878Z" fill="#E0E0E0"/>
<path d="M213.14 12.82C212.93 12.63 215.03 10.09 217.82 7.16999C220.61 4.24999 223.06 2.03999 223.26 2.23999C223.46 2.43999 221.37 4.96999 218.58 7.88999C215.79 10.81 213.34 13 213.14 12.82Z" fill="white"/>
<path d="M223.26 12.82C223.06 13.02 220.62 10.82 217.82 7.88998C215.02 4.95998 212.93 2.43998 213.14 2.23998C213.35 2.03998 215.78 4.23998 218.58 7.16998C221.38 10.1 223.47 12.63 223.26 12.82Z" fill="white"/>
<path d="M164.54 174.39H0.679993V79.54H164.54V174.39ZM1.67999 173.39H163.54V80.54H1.67999V173.39Z" fill="#E0E0E0"/>
<path d="M130.74 130.12H22.61V133.29H130.74V130.12Z" fill="#F0F0F0"/>
<path d="M138.19 141.94H22.61V145.4H138.19V141.94Z" fill="#F0F0F0"/>
<path d="M138.19 153.9H22.61V157.36H138.19V153.9Z" fill="#F0F0F0"/>
<path d="M60.4 112.95H22.61V121.18H60.4V112.95Z" fill="#F0F0F0"/>
<path d="M164.04 80.04H1.17999V95.14H164.04V80.04Z" fill="#E0E0E0"/>
<path d="M353.65 196.12H161.35V368.28H353.65V196.12Z" fill="#E6E6E6"/>
<path d="M171.02 141.89H20.38V298.4H171.02V141.89Z" fill="#F0F0F0"/>
<path d="M171.02 141.89H20.38V158.94H171.02V141.89Z" fill="#E0E0E0"/>
<path d="M32.82 150.24C32.7926 150.858 32.5842 151.455 32.2207 151.956C31.8573 152.457 31.3547 152.84 30.7754 153.058C30.1961 153.276 29.5656 153.319 28.9622 153.181C28.3587 153.044 27.8088 152.733 27.3808 152.286C26.9527 151.839 26.6654 151.276 26.5544 150.667C26.4434 150.058 26.5136 149.43 26.7563 148.861C26.9991 148.291 27.4036 147.806 27.9198 147.464C28.436 147.123 29.0411 146.941 29.66 146.94C30.5159 146.961 31.3286 147.32 31.9207 147.938C32.5128 148.556 32.8361 149.384 32.82 150.24V150.24Z" fill="white"/>
<path d="M45.65 150.24C45.6245 150.861 45.4169 151.461 45.053 151.965C44.6891 152.469 44.185 152.855 43.6034 153.075C43.0218 153.295 42.3884 153.339 41.7821 153.202C41.1757 153.064 40.6231 152.751 40.1931 152.302C39.7631 151.853 39.4746 151.288 39.3636 150.676C39.2526 150.064 39.3239 149.433 39.5687 148.862C39.8135 148.29 40.221 147.803 40.7404 147.462C41.2598 147.12 41.8683 146.939 42.49 146.94C43.3459 146.961 44.1586 147.32 44.7507 147.938C45.3428 148.556 45.6661 149.384 45.65 150.24V150.24Z" fill="white"/>
<path d="M58.48 150.24C58.4545 150.861 58.2469 151.461 57.883 151.965C57.5191 152.469 57.015 152.855 56.4334 153.075C55.8518 153.295 55.2184 153.339 54.612 153.202C54.0057 153.064 53.4531 152.751 53.0231 152.302C52.5931 151.853 52.3046 151.288 52.1936 150.676C52.0826 150.064 52.1539 149.433 52.3987 148.862C52.6435 148.29 53.051 147.803 53.5704 147.462C54.0898 147.12 54.6982 146.939 55.32 146.94C56.1758 146.961 56.9886 147.32 57.5807 147.938C58.1728 148.556 58.4961 149.384 58.48 150.24V150.24Z" fill="white"/>
<path d="M406.38 34.28H214.08V225.94H406.38V34.28Z" fill="#F0F0F0"/>
<path d="M406.38 34.28H214.08V56.73H406.38V34.28Z" fill="#E0E0E0"/>
<path d="M230.46 45.28C230.425 46.0961 230.151 46.884 229.671 47.5456C229.192 48.2073 228.529 48.7137 227.765 49.0019C227.001 49.2901 226.168 49.3474 225.372 49.1667C224.575 48.9861 223.849 48.5754 223.284 47.9857C222.718 47.396 222.339 46.6532 222.192 45.8496C222.045 45.046 222.137 44.2169 222.458 43.4654C222.778 42.7138 223.312 42.0729 223.993 41.6222C224.674 41.1714 225.473 40.9308 226.29 40.93C227.419 40.9562 228.492 41.4287 229.273 42.2439C230.055 43.0592 230.481 44.1509 230.46 45.28V45.28Z" fill="white"/>
<path d="M246.13 42.34C246.684 42.942 247.049 43.6939 247.179 44.5019C247.31 45.3099 247.199 46.1383 246.862 46.8839C246.524 47.6295 245.975 48.2594 245.282 48.695C244.589 49.1306 243.783 49.3527 242.965 49.3336C242.147 49.3145 241.353 49.0551 240.681 48.5876C240.009 48.1202 239.49 47.4654 239.187 46.7049C238.885 45.9443 238.813 45.1116 238.981 44.3106C239.149 43.5095 239.548 42.7755 240.13 42.2C240.945 41.4244 242.034 41.0037 243.159 41.0299C244.284 41.0561 245.352 41.5273 246.13 42.34V42.34Z" fill="white"/>
<path d="M264.24 45.28C264.205 46.0961 263.931 46.884 263.451 47.5456C262.972 48.2073 262.309 48.7137 261.545 49.0019C260.781 49.2901 259.948 49.3474 259.152 49.1667C258.355 48.9861 257.629 48.5754 257.064 47.9857C256.498 47.396 256.119 46.6532 255.972 45.8496C255.825 45.046 255.917 44.2169 256.238 43.4654C256.558 42.7138 257.092 42.0729 257.773 41.6222C258.454 41.1714 259.253 40.9308 260.07 40.93C261.199 40.9562 262.272 41.4287 263.053 42.2439C263.835 43.0592 264.261 44.1509 264.24 45.28V45.28Z" fill="white"/>
<path d="M364.84 419.13C364.84 419.27 295.4 419.39 209.77 419.39C124.14 419.39 54.67 419.27 54.67 419.13C54.67 418.99 124.1 418.87 209.77 418.87C295.44 418.87 364.84 419 364.84 419.13Z" fill="#263238"/>
<path d="M332.54 25.68L327.39 27.52L325.18 20.79C321.12 8.38001 308.18 1.79001 296.29 5.98001C284.4 10.17 278.07 23.78 282.13 36.19L284.34 42.92L279.17 44.77C277.199 45.5347 275.598 47.0296 274.7 48.9441C273.802 50.8587 273.677 53.0455 274.35 55.05L288.68 98.84C288.977 99.8323 289.471 100.755 290.132 101.552C290.793 102.35 291.608 103.007 292.528 103.483C293.447 103.96 294.454 104.247 295.486 104.327C296.519 104.407 297.558 104.279 298.54 103.95L351.91 84.86C353.907 84.0967 355.531 82.5885 356.439 80.6526C357.348 78.7167 357.47 76.5041 356.78 74.48L342.44 30.69C342.135 29.7005 341.633 28.7825 340.966 27.991C340.298 27.1995 339.478 26.5505 338.554 26.083C337.63 25.6154 336.621 25.3387 335.588 25.2695C334.555 25.2003 333.518 25.3399 332.54 25.68V25.68ZM291.86 32.68C290.765 29.4532 290.962 25.928 292.408 22.8429C293.855 19.7577 296.439 17.3521 299.62 16.13C301.191 15.5926 302.853 15.3772 304.509 15.4964C306.165 15.6156 307.779 16.0672 309.257 16.8241C310.734 17.581 312.044 18.6277 313.108 19.9018C314.172 21.176 314.969 22.6514 315.45 24.24L317.65 30.97L294.06 39.41L291.86 32.68ZM321.86 71.54L325.52 82.72C325.587 82.9442 325.566 83.1856 325.459 83.3942C325.353 83.6028 325.171 83.7624 324.95 83.84L319.82 85.67C319.616 85.7266 319.398 85.702 319.211 85.6013C319.025 85.5007 318.885 85.3318 318.82 85.13L315.13 74C313.095 73.8891 311.143 73.1594 309.535 71.9083C307.926 70.6573 306.738 68.9448 306.13 67C305.26 64.4289 305.419 61.6211 306.573 59.1644C307.727 56.7076 309.786 54.7925 312.32 53.82C313.571 53.3925 314.896 53.2213 316.214 53.3166C317.533 53.4118 318.819 53.7716 319.996 54.3744C321.172 54.9772 322.216 55.8108 323.063 56.8254C323.911 57.84 324.546 59.0149 324.93 60.28C325.573 62.2556 325.627 64.3759 325.083 66.3812C324.54 68.3865 323.423 70.1898 321.87 71.57L321.86 71.54Z" fill="#1BCAB0"/>
<path d="M327.16 27.4C327.16 27.54 317.61 31.13 305.73 35.4C293.85 39.67 284.16 43.1 284.11 43C284.06 42.9 293.66 39.28 305.55 35C317.44 30.72 327.11 27.27 327.16 27.4Z" fill="#263238"/>
<path d="M338.5 29.24C338.544 29.3268 338.581 29.4171 338.61 29.51C338.69 29.71 338.78 29.97 338.9 30.29C339.16 31.02 339.52 32.03 339.97 33.29L343.81 44.47C345.41 49.21 347.32 54.83 349.44 61.07C350.44 64.2 351.62 67.46 352.72 70.89C353.309 72.6576 353.563 74.5193 353.47 76.38C353.385 77.3477 353.11 78.2891 352.66 79.15C352.179 80.0081 351.538 80.7653 350.77 81.38C349.225 82.5078 347.51 83.3821 345.69 83.97L340.54 85.82L330.79 89.31L314.28 95.19L303.13 99.11L300.13 100.11L299.33 100.37C299.244 100.408 299.153 100.432 299.06 100.44C299.06 100.44 299.14 100.44 299.31 100.32L300.09 100.01L303.09 98.88L314.18 94.8L330.66 88.8L340.39 85.28L345.54 83.42C347.308 82.856 348.974 82.0083 350.47 80.91C351.184 80.3396 351.782 79.6367 352.23 78.84C352.653 78.0438 352.909 77.169 352.98 76.27C353.072 74.4772 352.828 72.683 352.26 70.98C351.18 67.58 350.04 64.29 349.01 61.16C346.93 54.91 345.01 49.27 343.49 44.53C341.97 39.79 340.69 35.98 339.81 33.3C339.39 31.99 339.07 30.97 338.81 30.23L338.57 29.43C338.54 29.3694 338.516 29.3057 338.5 29.24V29.24Z" fill="#263238"/>
<path d="M310.34 15.45C310.34 15.45 309.81 15.19 308.83 14.79C307.433 14.2533 305.956 13.9558 304.46 13.91C302.243 13.834 300.037 14.2506 298 15.13C295.523 16.225 293.406 17.9961 291.89 20.24C290.364 22.4775 289.545 25.1217 289.54 27.83C289.561 30.0497 289.898 32.2552 290.54 34.38C291.06 36.2 291.6 37.65 291.96 38.66C292.172 39.173 292.346 39.7011 292.48 40.24C292.196 39.7603 291.958 39.2547 291.77 38.73C291.36 37.73 290.77 36.31 290.19 34.48C289.478 32.3329 289.09 30.0915 289.04 27.83C289.013 25.0194 289.851 22.2686 291.44 19.95C293.009 17.6241 295.213 15.7982 297.79 14.69C299.89 13.8058 302.165 13.4158 304.44 13.55C305.968 13.6279 307.469 13.9837 308.87 14.6C309.244 14.7728 309.606 14.9733 309.95 15.2C310.092 15.2625 310.224 15.3468 310.34 15.45V15.45Z" fill="#263238"/>
<path d="M310.8 54.58C310.96 54.4833 311.127 54.3997 311.3 54.33C311.801 54.1041 312.319 53.9202 312.85 53.78C313.693 53.5312 314.562 53.3835 315.44 53.34C316.634 53.2759 317.828 53.4562 318.95 53.87C321.51 54.77 323.86 57.38 325.02 60.87C325.576 62.7429 325.576 64.7371 325.02 66.61C324.403 68.6428 323.298 70.4934 321.8 72L321.86 71.73C323.19 75.38 324.64 79.34 326.14 83.47L326.23 83.72L325.98 83.81L323.69 84.57L318.69 86.24L318.44 86.32L318.36 86.07C316.99 81.93 315.49 78.07 314.36 74.28L314.58 74.45C312.625 74.2876 310.761 73.5539 309.22 72.34C307.826 71.2662 306.682 69.9011 305.87 68.34C305.137 66.9556 304.772 65.4061 304.81 63.84C304.856 62.2395 305.256 60.6689 305.98 59.2409C306.705 57.8129 307.736 56.5628 309 55.58C309.52 55.1576 310.104 54.8201 310.73 54.58C310.165 54.9152 309.618 55.279 309.09 55.67C307.701 56.8449 306.637 58.3564 306 60.06C305.453 61.3447 305.197 62.7345 305.251 64.1298C305.304 65.525 305.666 66.8911 306.31 68.13C307.109 69.6318 308.225 70.942 309.58 71.97C311.05 73.1238 312.827 73.8194 314.69 73.97H314.86L314.91 74.12C316.01 77.84 317.52 81.73 318.91 85.89L318.58 85.73L323.58 84.06L325.86 83.29L325.7 83.63C324.21 79.5 322.77 75.53 321.45 71.88V71.73L321.57 71.61C323.024 70.1659 324.108 68.3924 324.73 66.44C325.26 64.6485 325.26 62.7416 324.73 60.95C323.64 57.59 321.39 55.04 318.95 54.14C317.87 53.7235 316.717 53.5297 315.56 53.57C314.696 53.5898 313.837 53.7072 313 53.92C311.51 54.29 310.81 54.63 310.8 54.58Z" fill="#263238"/>
<path d="M262.54 344.39L162.65 343.93C156.882 343.899 151.361 341.579 147.302 337.48C143.243 333.381 140.976 327.839 141 322.07L142.06 71.6603C142.072 68.8023 142.647 65.9747 143.752 63.3391C144.857 60.7035 146.471 58.3115 148.501 56.2999C150.531 54.2883 152.938 52.6966 155.584 51.6156C158.229 50.5347 161.062 49.9858 163.92 50.0003L263.8 50.4603C269.569 50.4894 275.09 52.8068 279.151 56.9037C283.212 61.0005 285.481 66.5417 285.46 72.3103L284.4 322.71C284.388 325.569 283.814 328.398 282.709 331.034C281.604 333.671 279.99 336.065 277.96 338.078C275.93 340.091 273.524 341.685 270.878 342.768C268.232 343.851 265.399 344.402 262.54 344.39V344.39Z" fill="black"/>
<path d="M263.65 59.0703H244.29C243.659 59.082 243.035 59.218 242.456 59.4706C241.877 59.7232 241.353 60.0875 240.915 60.5425C240.477 60.9975 240.132 61.5344 239.902 62.1226C239.671 62.7107 239.558 63.3386 239.57 63.9703V67.4803C239.582 68.1115 239.469 68.7388 239.239 69.3264C239.008 69.914 238.663 70.4503 238.225 70.9045C237.786 71.3587 237.262 71.722 236.683 71.9735C236.104 72.225 235.481 72.3599 234.85 72.3703L197.11 72.2003C195.833 72.1662 194.622 71.6269 193.743 70.7006C192.864 69.7744 192.388 68.537 192.42 67.2603V63.7503C192.452 62.4752 191.978 61.2393 191.101 60.3134C190.224 59.3874 189.015 58.8469 187.74 58.8103H180.93L163.98 58.7303C159.949 58.7063 156.072 60.2808 153.198 63.109C150.325 65.9373 148.69 69.7888 148.65 73.8203L147.65 318.24C147.641 320.24 148.026 322.223 148.783 324.074C149.54 325.925 150.654 327.609 152.061 329.03C153.469 330.451 155.143 331.58 156.987 332.354C158.832 333.128 160.81 333.531 162.81 333.54L262.49 334C264.492 334.009 266.475 333.624 268.328 332.867C270.18 332.11 271.865 330.995 273.287 329.586C274.709 328.177 275.839 326.503 276.613 324.657C277.388 322.812 277.791 320.832 277.8 318.83L278.8 74.4103C278.824 70.3674 277.242 66.4805 274.401 63.604C271.56 60.7274 267.693 59.0967 263.65 59.0703V59.0703Z" fill="white"/>
<path d="M250.24 301.39L176.12 301.07C175.35 301.07 174.73 300.23 174.74 299.21L174.82 279.82C174.82 278.82 175.45 277.96 176.22 277.96L249.057 278.294C249.911 278.298 250.899 278.271 251.406 278.958V278.958C251.663 279.307 251.775 279.741 251.72 280.17L251.65 299.54C251.65 300.57 251.01 301.4 250.24 301.39Z" fill="#1BCAB0"/>
<path d="M194.514 292V286.086H196.847C197.294 286.086 197.675 286.166 197.991 286.326C198.308 286.484 198.55 286.708 198.715 286.999C198.883 287.288 198.967 287.627 198.967 288.018C198.967 288.411 198.882 288.749 198.712 289.032C198.543 289.313 198.298 289.528 197.976 289.678C197.657 289.829 197.27 289.904 196.815 289.904H195.253V288.899H196.613C196.852 288.899 197.05 288.866 197.208 288.801C197.366 288.735 197.483 288.637 197.56 288.506C197.639 288.375 197.679 288.213 197.679 288.018C197.679 287.822 197.639 287.656 197.56 287.521C197.483 287.387 197.365 287.285 197.205 287.215C197.047 287.144 196.848 287.109 196.607 287.109H195.764V292H194.514ZM197.708 289.309L199.177 292H197.797L196.359 289.309H197.708ZM201.777 292.087C201.321 292.087 200.928 291.994 200.599 291.809C200.271 291.623 200.019 291.359 199.842 291.018C199.665 290.676 199.577 290.27 199.577 289.803C199.577 289.346 199.665 288.946 199.842 288.601C200.019 288.257 200.269 287.988 200.59 287.796C200.913 287.603 201.293 287.507 201.728 287.507C202.02 287.507 202.293 287.554 202.545 287.648C202.799 287.741 203.02 287.88 203.209 288.067C203.4 288.254 203.548 288.489 203.654 288.772C203.76 289.053 203.813 289.382 203.813 289.759V290.097H200.067V289.335H202.655C202.655 289.158 202.616 289.001 202.539 288.864C202.462 288.727 202.355 288.621 202.219 288.544C202.084 288.465 201.927 288.425 201.748 288.425C201.561 288.425 201.396 288.469 201.251 288.555C201.109 288.64 200.997 288.754 200.916 288.899C200.836 289.041 200.794 289.2 200.792 289.375V290.1C200.792 290.319 200.833 290.509 200.913 290.669C200.996 290.829 201.113 290.952 201.263 291.038C201.413 291.125 201.591 291.168 201.797 291.168C201.934 291.168 202.059 291.149 202.172 291.111C202.286 291.072 202.383 291.014 202.464 290.937C202.545 290.86 202.607 290.766 202.649 290.654L203.787 290.729C203.729 291.003 203.61 291.242 203.431 291.446C203.254 291.648 203.025 291.806 202.744 291.919C202.465 292.031 202.143 292.087 201.777 292.087ZM206.613 293.756C206.215 293.756 205.873 293.701 205.588 293.591C205.305 293.483 205.08 293.336 204.913 293.149C204.745 292.963 204.636 292.753 204.586 292.52L205.724 292.367C205.759 292.455 205.814 292.538 205.889 292.615C205.964 292.692 206.063 292.754 206.186 292.8C206.311 292.848 206.463 292.872 206.642 292.872C206.91 292.872 207.13 292.807 207.304 292.676C207.479 292.547 207.566 292.33 207.566 292.026V291.215H207.514C207.46 291.338 207.38 291.454 207.272 291.564C207.164 291.674 207.025 291.763 206.856 291.833C206.687 291.902 206.484 291.936 206.25 291.936C205.917 291.936 205.613 291.859 205.34 291.705C205.069 291.55 204.852 291.312 204.69 290.992C204.531 290.671 204.451 290.265 204.451 289.774C204.451 289.271 204.533 288.852 204.696 288.515C204.86 288.178 205.077 287.926 205.349 287.758C205.622 287.591 205.921 287.507 206.247 287.507C206.495 287.507 206.703 287.549 206.87 287.634C207.038 287.717 207.173 287.821 207.275 287.946C207.379 288.069 207.459 288.19 207.514 288.31H207.561V287.565H208.782V292.043C208.782 292.421 208.69 292.736 208.505 292.99C208.32 293.245 208.064 293.435 207.737 293.562C207.411 293.691 207.037 293.756 206.613 293.756ZM206.639 291.012C206.838 291.012 207.005 290.963 207.142 290.865C207.28 290.765 207.386 290.623 207.46 290.438C207.535 290.251 207.572 290.028 207.572 289.768C207.572 289.508 207.536 289.283 207.462 289.092C207.389 288.9 207.283 288.751 207.145 288.645C207.006 288.539 206.838 288.486 206.639 288.486C206.437 288.486 206.267 288.541 206.128 288.65C205.99 288.758 205.885 288.908 205.814 289.101C205.742 289.293 205.707 289.516 205.707 289.768C205.707 290.024 205.742 290.245 205.814 290.432C205.887 290.617 205.992 290.76 206.128 290.862C206.267 290.962 206.437 291.012 206.639 291.012ZM209.761 292V287.565H210.991V292H209.761ZM210.379 286.993C210.196 286.993 210.039 286.932 209.908 286.811C209.779 286.688 209.715 286.541 209.715 286.369C209.715 286.2 209.779 286.055 209.908 285.933C210.039 285.81 210.196 285.748 210.379 285.748C210.562 285.748 210.718 285.81 210.847 285.933C210.977 286.055 211.043 286.2 211.043 286.369C211.043 286.541 210.977 286.688 210.847 286.811C210.718 286.932 210.562 286.993 210.379 286.993ZM215.667 288.829L214.54 288.899C214.521 288.803 214.48 288.716 214.416 288.639C214.353 288.56 214.269 288.497 214.165 288.451C214.063 288.403 213.941 288.379 213.798 288.379C213.608 288.379 213.447 288.419 213.316 288.5C213.185 288.579 213.12 288.685 213.12 288.818C213.12 288.924 213.162 289.013 213.247 289.086C213.332 289.16 213.477 289.218 213.683 289.263L214.486 289.424C214.917 289.513 215.238 289.655 215.45 289.852C215.662 290.048 215.768 290.306 215.768 290.626C215.768 290.916 215.682 291.171 215.511 291.391C215.341 291.61 215.108 291.782 214.812 291.905C214.517 292.026 214.178 292.087 213.793 292.087C213.205 292.087 212.738 291.964 212.389 291.72C212.043 291.474 211.84 291.139 211.78 290.715L212.99 290.652C213.026 290.831 213.115 290.967 213.255 291.062C213.396 291.154 213.576 291.2 213.795 291.2C214.011 291.2 214.184 291.159 214.315 291.076C214.448 290.991 214.515 290.883 214.517 290.75C214.515 290.638 214.468 290.547 214.376 290.475C214.283 290.402 214.141 290.346 213.949 290.308L213.18 290.155C212.747 290.068 212.425 289.918 212.213 289.704C212.003 289.491 211.898 289.218 211.898 288.887C211.898 288.602 211.975 288.357 212.129 288.151C212.285 287.945 212.504 287.786 212.785 287.674C213.068 287.563 213.399 287.507 213.778 287.507C214.338 287.507 214.779 287.625 215.101 287.862C215.424 288.099 215.613 288.421 215.667 288.829ZM218.901 287.565V288.489H216.23V287.565H218.901ZM216.837 286.502H218.067V290.637C218.067 290.751 218.084 290.839 218.119 290.903C218.153 290.964 218.202 291.008 218.263 291.033C218.327 291.058 218.4 291.07 218.483 291.07C218.54 291.07 218.598 291.065 218.656 291.056C218.714 291.044 218.758 291.036 218.789 291.03L218.982 291.945C218.921 291.964 218.834 291.987 218.722 292.012C218.611 292.039 218.475 292.055 218.315 292.061C218.019 292.072 217.759 292.033 217.536 291.942C217.314 291.852 217.142 291.711 217.019 291.521C216.895 291.33 216.835 291.089 216.837 290.799V286.502ZM219.703 292V287.565H220.895V288.339H220.941C221.022 288.063 221.158 287.855 221.349 287.715C221.539 287.572 221.759 287.501 222.007 287.501C222.068 287.501 222.135 287.505 222.206 287.513C222.277 287.52 222.34 287.531 222.394 287.545V288.636C222.336 288.619 222.256 288.603 222.154 288.59C222.052 288.576 221.959 288.57 221.874 288.57C221.693 288.57 221.531 288.609 221.389 288.688C221.248 288.765 221.137 288.873 221.054 289.011C220.973 289.15 220.933 289.31 220.933 289.491V292H219.703ZM224.167 292.084C223.885 292.084 223.632 292.035 223.411 291.936C223.19 291.836 223.014 291.689 222.885 291.495C222.758 291.298 222.695 291.054 222.695 290.761C222.695 290.515 222.74 290.308 222.831 290.14C222.921 289.973 223.044 289.838 223.2 289.736C223.356 289.634 223.533 289.557 223.731 289.505C223.932 289.453 224.141 289.417 224.361 289.395C224.619 289.368 224.827 289.343 224.985 289.32C225.143 289.295 225.257 289.259 225.328 289.211C225.399 289.163 225.435 289.091 225.435 288.997V288.98C225.435 288.797 225.377 288.655 225.262 288.555C225.148 288.455 224.987 288.405 224.777 288.405C224.555 288.405 224.379 288.454 224.248 288.552C224.117 288.649 224.031 288.77 223.988 288.916L222.851 288.824C222.909 288.554 223.022 288.321 223.191 288.125C223.361 287.927 223.579 287.775 223.847 287.669C224.116 287.561 224.428 287.507 224.783 287.507C225.029 287.507 225.265 287.536 225.49 287.594C225.717 287.651 225.918 287.741 226.093 287.862C226.271 287.983 226.41 288.139 226.512 288.33C226.614 288.519 226.665 288.745 226.665 289.009V292H225.499V291.385H225.464C225.393 291.524 225.297 291.646 225.178 291.752C225.059 291.856 224.915 291.937 224.748 291.997C224.58 292.055 224.387 292.084 224.167 292.084ZM224.52 291.235C224.701 291.235 224.86 291.199 224.999 291.128C225.138 291.055 225.246 290.957 225.325 290.833C225.404 290.71 225.444 290.571 225.444 290.415V289.944C225.405 289.969 225.352 289.992 225.285 290.013C225.22 290.033 225.145 290.051 225.063 290.068C224.98 290.084 224.897 290.098 224.814 290.112C224.732 290.123 224.656 290.134 224.589 290.143C224.445 290.164 224.319 290.198 224.211 290.244C224.103 290.291 224.019 290.353 223.96 290.432C223.9 290.509 223.87 290.605 223.87 290.721C223.87 290.888 223.931 291.016 224.052 291.105C224.175 291.191 224.331 291.235 224.52 291.235ZM227.62 292V287.565H228.812V288.339H228.858C228.939 288.063 229.075 287.855 229.265 287.715C229.456 287.572 229.675 287.501 229.924 287.501C229.985 287.501 230.052 287.505 230.123 287.513C230.194 287.52 230.257 287.531 230.311 287.545V288.636C230.253 288.619 230.173 288.603 230.071 288.59C229.969 288.576 229.876 288.57 229.791 288.57C229.61 288.57 229.448 288.609 229.306 288.688C229.165 288.765 229.054 288.873 228.971 289.011C228.89 289.15 228.85 289.31 228.85 289.491V292H227.62Z" fill="#E8E8E3"/>
<path d="M190.904 130.92L165.185 130.804L165.163 135.524L190.883 135.64L190.904 130.92Z" fill="#1BCAB0"/>
<path d="M266.3 159.9C266.502 159.88 266.701 159.833 266.89 159.76C267.167 159.652 267.408 159.468 267.584 159.229C267.761 158.99 267.867 158.707 267.89 158.41C267.89 156.82 267.89 154.5 267.89 151.52C267.89 150.03 267.89 148.36 267.89 146.52C267.89 146.07 267.89 145.6 267.89 145.13C267.955 144.674 267.856 144.21 267.61 143.82C267.473 143.633 267.293 143.481 267.087 143.375C266.88 143.269 266.652 143.213 266.42 143.21H264.86H250.41L166.77 142.9C166.556 142.897 166.344 142.945 166.153 143.041C165.961 143.136 165.796 143.277 165.67 143.45C165.429 143.841 165.336 144.307 165.41 144.76C165.41 145.76 165.41 146.76 165.41 147.76C165.41 149.76 165.41 151.76 165.41 153.76C165.41 154.76 165.41 155.76 165.41 156.76C165.369 157.226 165.369 157.695 165.41 158.16C165.463 158.36 165.56 158.545 165.696 158.701C165.831 158.857 166 158.98 166.19 159.06C166.387 159.139 166.598 159.176 166.81 159.17H171.9L194.11 159.29L231.71 159.52L257.06 159.72L263.95 159.8H265.74C266.15 159.8 266.35 159.8 266.35 159.8H265.74H263.95H257.06H231.71L194.11 159.68L171.9 159.59H166.81C166.53 159.602 166.251 159.554 165.99 159.45C165.727 159.338 165.493 159.167 165.306 158.95C165.118 158.734 164.983 158.477 164.91 158.2C164.852 157.938 164.832 157.668 164.85 157.4V156.66C164.85 155.66 164.85 154.66 164.85 153.66C164.85 151.66 164.85 149.66 164.85 147.66C164.85 146.66 164.85 145.66 164.85 144.66C164.831 144.394 164.831 144.127 164.85 143.86C164.888 143.566 165.001 143.287 165.18 143.05C165.353 142.809 165.581 142.613 165.846 142.479C166.11 142.345 166.404 142.277 166.7 142.28L250.34 142.74L264.79 142.84H266.35C266.625 142.841 266.896 142.907 267.139 143.034C267.383 143.161 267.593 143.345 267.75 143.57C268.032 144.005 268.146 144.528 268.07 145.04C268.07 145.51 268.07 145.98 268.07 146.43C268.07 148.25 268.07 149.92 268.07 151.43C268.07 154.43 268 156.73 267.98 158.33C267.956 158.638 267.844 158.932 267.658 159.178C267.472 159.425 267.219 159.613 266.93 159.72C266.741 159.838 266.523 159.9 266.3 159.9V159.9Z" fill="#E0E0E0"/>
<path d="M219.95 147.92H172.91V152.33H219.95V147.92Z" fill="#1BCAB0"/>
<path d="M190.729 173.979L165.009 173.863L164.988 178.582L190.707 178.699L190.729 173.979Z" fill="#1BCAB0"/>
<path d="M265.65 202.96C265.852 202.935 266.053 202.899 266.25 202.85C266.529 202.761 266.786 202.614 267.004 202.417C267.221 202.22 267.394 201.979 267.51 201.71C267.668 201.307 267.729 200.872 267.69 200.44C267.69 199.96 267.69 199.44 267.69 198.86C267.69 197.7 267.69 196.38 267.69 194.86V188.51C267.738 188.051 267.636 187.588 267.4 187.19C267.154 186.783 266.766 186.48 266.31 186.34C265.812 186.251 265.305 186.225 264.8 186.26H250.41L167.06 185.95C166.612 185.951 166.179 186.115 165.843 186.411C165.506 186.707 165.288 187.116 165.23 187.56C165.23 188.51 165.23 189.56 165.23 190.56C165.23 192.56 165.23 194.56 165.23 196.56C165.23 197.56 165.23 198.56 165.23 199.56C165.193 200.028 165.213 200.498 165.29 200.96C165.415 201.366 165.672 201.718 166.02 201.96C166.39 202.195 166.823 202.307 167.26 202.28H168.65H171.54L193.67 202.39L231.14 202.62L256.4 202.82L263.27 202.9H265.06H265.66H265.06H263.27H256.4H231.14L193.65 202.86L171.52 202.78H167.17C166.629 202.812 166.093 202.669 165.64 202.37C165.185 202.055 164.853 201.592 164.7 201.06C164.611 200.552 164.584 200.035 164.62 199.52C164.62 198.52 164.62 197.52 164.62 196.52C164.62 194.52 164.62 192.52 164.62 190.52C164.62 189.52 164.62 188.52 164.62 187.52C164.693 186.948 164.972 186.423 165.405 186.042C165.837 185.661 166.394 185.451 166.97 185.45L250.32 185.91L264.71 186.02C265.246 185.987 265.784 186.024 266.31 186.13C266.83 186.3 267.268 186.656 267.54 187.13C267.799 187.571 267.911 188.082 267.86 188.59C267.86 189.06 267.86 189.52 267.86 189.98C267.86 191.79 267.86 193.45 267.86 194.98C267.86 196.51 267.86 197.8 267.86 198.98C267.86 199.55 267.86 200.08 267.86 200.57C267.897 201.017 267.824 201.467 267.65 201.88C267.52 202.156 267.333 202.401 267.1 202.598C266.867 202.794 266.594 202.939 266.3 203.02C266.082 203.038 265.862 203.018 265.65 202.96V202.96Z" fill="#E0E0E0"/>
<path d="M190.535 218.908L164.815 218.791L164.794 223.511L190.514 223.628L190.535 218.908Z" fill="#1BCAB0"/>
<path d="M265.45 247.87C265.652 247.846 265.853 247.81 266.05 247.76C266.328 247.672 266.584 247.525 266.802 247.331C267.019 247.136 267.192 246.897 267.31 246.63C267.467 246.226 267.529 245.792 267.49 245.36C267.49 244.87 267.49 244.36 267.49 243.77C267.49 242.62 267.49 241.29 267.49 239.77V233.42C267.538 232.961 267.436 232.498 267.2 232.1C266.948 231.7 266.561 231.403 266.11 231.26C265.612 231.168 265.105 231.138 264.6 231.17H250.21L166.86 230.86C166.412 230.861 165.979 231.025 165.643 231.321C165.306 231.617 165.088 232.026 165.03 232.47C165.03 233.47 165.03 234.47 165.03 235.47C165.03 237.47 165.03 239.47 165.03 241.47C165.03 242.47 165.03 243.47 165.03 244.47C164.993 244.934 165.013 245.401 165.09 245.86C165.21 246.268 165.468 246.622 165.82 246.86C166.187 247.1 166.623 247.212 167.06 247.18H171.41L193.54 247.3L231.01 247.53L256.27 247.73L263.14 247.81H264.93C265.33 247.81 265.53 247.81 265.53 247.81C265.53 247.81 265.33 247.81 264.93 247.81H263.14H256.27H231.01L193.54 247.7L171.41 247.61H167.06C166.519 247.647 165.981 247.503 165.53 247.2C165.075 246.885 164.743 246.422 164.59 245.89C164.501 245.382 164.474 244.865 164.51 244.35C164.51 243.35 164.51 242.35 164.51 241.35C164.51 239.35 164.51 237.35 164.51 235.35C164.51 234.35 164.51 233.35 164.51 232.3C164.581 231.729 164.858 231.204 165.289 230.823C165.72 230.441 166.275 230.231 166.85 230.23L250.2 230.69L264.59 230.8C265.126 230.767 265.664 230.804 266.19 230.91C266.71 231.08 267.148 231.436 267.42 231.91C267.679 232.351 267.791 232.862 267.74 233.37C267.74 233.84 267.74 234.31 267.74 234.76C267.74 236.57 267.74 238.23 267.74 239.76C267.74 241.29 267.74 242.58 267.74 243.76C267.74 244.33 267.74 244.86 267.74 245.35C267.779 245.798 267.706 246.247 267.53 246.66C267.4 246.936 267.213 247.181 266.98 247.378C266.747 247.574 266.474 247.719 266.18 247.8C265.946 247.881 265.696 247.905 265.45 247.87V247.87Z" fill="#E0E0E0"/>
<path d="M218.946 192.227L171.906 192.014L171.886 196.424L218.926 196.637L218.946 192.227Z" fill="#1BCAB0"/>
<path d="M176.16 239.71C176.131 240.113 175.984 240.497 175.738 240.817C175.491 241.136 175.157 241.376 174.776 241.508C174.394 241.639 173.983 241.655 173.592 241.554C173.201 241.454 172.849 241.241 172.578 240.942C172.308 240.643 172.131 240.271 172.07 239.872C172.008 239.474 172.066 239.066 172.234 238.699C172.402 238.333 172.675 238.024 173.017 237.811C173.36 237.598 173.757 237.49 174.16 237.5C174.717 237.531 175.24 237.781 175.614 238.194C175.989 238.608 176.185 239.153 176.16 239.71V239.71Z" fill="#1BCAB0"/>
<path d="M182.53 239.74C182.55 240.022 182.511 240.305 182.417 240.572C182.323 240.838 182.174 241.082 181.982 241.289C181.789 241.495 181.556 241.66 181.297 241.773C181.037 241.886 180.758 241.944 180.475 241.944C180.193 241.944 179.913 241.886 179.654 241.773C179.395 241.66 179.161 241.495 178.969 241.289C178.776 241.082 178.628 240.838 178.533 240.572C178.439 240.305 178.4 240.022 178.42 239.74C178.4 239.458 178.439 239.175 178.533 238.909C178.628 238.643 178.776 238.399 178.969 238.192C179.161 237.985 179.395 237.82 179.654 237.708C179.913 237.595 180.193 237.537 180.475 237.537C180.758 237.537 181.037 237.595 181.297 237.708C181.556 237.82 181.789 237.985 181.982 238.192C182.174 238.399 182.323 238.643 182.417 238.909C182.511 239.175 182.55 239.458 182.53 239.74V239.74Z" fill="#1BCAB0"/>
<path d="M188.91 239.77C188.881 240.173 188.734 240.557 188.488 240.877C188.241 241.196 187.907 241.436 187.526 241.568C187.144 241.699 186.733 241.715 186.342 241.614C185.951 241.514 185.599 241.301 185.328 241.002C185.058 240.703 184.881 240.331 184.82 239.932C184.758 239.534 184.816 239.126 184.984 238.759C185.152 238.393 185.425 238.084 185.767 237.871C186.11 237.658 186.507 237.55 186.91 237.56C187.466 237.594 187.987 237.844 188.361 238.257C188.735 238.67 188.932 239.214 188.91 239.77Z" fill="#1BCAB0"/>
<path d="M195.28 239.8C195.251 240.203 195.104 240.587 194.858 240.907C194.611 241.226 194.277 241.466 193.896 241.598C193.514 241.729 193.103 241.745 192.712 241.644C192.321 241.544 191.969 241.331 191.698 241.032C191.428 240.733 191.251 240.361 191.19 239.962C191.128 239.564 191.186 239.156 191.354 238.789C191.522 238.423 191.795 238.114 192.137 237.901C192.48 237.688 192.877 237.58 193.28 237.59C193.836 237.624 194.357 237.874 194.731 238.287C195.105 238.7 195.302 239.244 195.28 239.8Z" fill="#1BCAB0"/>
<path d="M201.65 239.82C201.623 240.223 201.477 240.609 201.232 240.93C200.987 241.251 200.653 241.493 200.272 241.625C199.89 241.758 199.478 241.775 199.087 241.676C198.696 241.576 198.342 241.364 198.071 241.065C197.799 240.766 197.621 240.394 197.559 239.995C197.497 239.596 197.554 239.188 197.722 238.821C197.891 238.454 198.163 238.144 198.506 237.931C198.849 237.718 199.247 237.609 199.65 237.62C200.205 237.654 200.724 237.903 201.098 238.314C201.471 238.725 201.669 239.265 201.65 239.82Z" fill="#1BCAB0"/>
<path d="M208.03 239.85C208.003 240.251 207.859 240.635 207.616 240.955C207.374 241.275 207.043 241.517 206.664 241.652C206.285 241.786 205.876 241.807 205.486 241.711C205.095 241.616 204.742 241.409 204.468 241.115C204.194 240.821 204.012 240.453 203.944 240.057C203.877 239.661 203.926 239.254 204.087 238.886C204.248 238.518 204.513 238.205 204.849 237.985C205.185 237.766 205.578 237.649 205.98 237.65C206.543 237.671 207.075 237.914 207.46 238.327C207.844 238.739 208.049 239.287 208.03 239.85V239.85Z" fill="#1BCAB0"/>
<path d="M214.4 239.88C214.42 240.162 214.381 240.445 214.287 240.712C214.193 240.978 214.044 241.222 213.852 241.429C213.659 241.635 213.426 241.8 213.167 241.913C212.907 242.026 212.628 242.084 212.345 242.084C212.063 242.084 211.783 242.026 211.524 241.913C211.265 241.8 211.031 241.635 210.839 241.429C210.646 241.222 210.498 240.978 210.403 240.712C210.309 240.445 210.271 240.162 210.29 239.88C210.271 239.598 210.309 239.315 210.403 239.049C210.498 238.783 210.646 238.538 210.839 238.332C211.031 238.125 211.265 237.96 211.524 237.848C211.783 237.735 212.063 237.677 212.345 237.677C212.628 237.677 212.907 237.735 213.167 237.848C213.426 237.96 213.659 238.125 213.852 238.332C214.044 238.538 214.193 238.783 214.287 239.049C214.381 239.315 214.42 239.598 214.4 239.88Z" fill="#1BCAB0"/>
<path d="M220.77 239.91C220.743 240.311 220.599 240.695 220.356 241.015C220.114 241.335 219.783 241.577 219.404 241.712C219.025 241.846 218.616 241.867 218.226 241.771C217.835 241.676 217.482 241.469 217.208 241.175C216.934 240.881 216.752 240.513 216.684 240.117C216.617 239.721 216.666 239.314 216.827 238.946C216.988 238.578 217.253 238.265 217.589 238.045C217.925 237.826 218.318 237.709 218.72 237.71C219.283 237.731 219.815 237.974 220.2 238.387C220.584 238.799 220.789 239.347 220.77 239.91V239.91Z" fill="#1BCAB0"/>
<path d="M227.14 239.94C227.113 240.343 226.967 240.729 226.722 241.05C226.477 241.371 226.143 241.613 225.762 241.745C225.38 241.878 224.968 241.896 224.577 241.796C224.186 241.696 223.832 241.484 223.561 241.185C223.289 240.886 223.111 240.514 223.049 240.115C222.987 239.716 223.044 239.308 223.212 238.941C223.381 238.574 223.653 238.264 223.996 238.051C224.339 237.838 224.737 237.729 225.14 237.74C225.695 237.774 226.214 238.023 226.588 238.434C226.961 238.845 227.159 239.385 227.14 239.94V239.94Z" fill="#1BCAB0"/>
<path d="M218.09 95.5803C218.785 95.2744 219.374 94.7709 219.785 94.1326C220.196 93.4943 220.41 92.7493 220.4 91.9903C220.426 91.4969 220.351 91.0034 220.18 90.5398C220.009 90.0763 219.746 89.6524 219.406 89.294C219.066 88.9356 218.656 88.6502 218.202 88.4552C217.748 88.2601 217.259 88.1596 216.765 88.1596C216.271 88.1596 215.782 88.2601 215.328 88.4552C214.874 88.6502 214.465 88.9356 214.125 89.294C213.785 89.6524 213.521 90.0763 213.35 90.5398C213.179 91.0034 213.104 91.4969 213.13 91.9903C213.115 92.7569 213.327 93.5108 213.74 94.1569C214.153 94.8029 214.748 95.3122 215.45 95.6203C209.85 96.4603 210.1 102.54 210.1 102.54L223.34 102.6C223.34 102.6 223.65 96.4103 218.09 95.5803Z" fill="#1BCAB0"/>
<path d="M239.605 106.522L192.415 106.308L192.39 111.948L239.579 112.162L239.605 106.522Z" fill="#1BCAB0"/>
<path d="M132.15 414.34V405.79L116.82 405.68L116.69 418.61L117.64 418.68C121.87 418.95 139.16 419.35 142 418.47C145.16 417.49 132.15 414.34 132.15 414.34Z" fill="#1BCAB0"/>
<path d="M142.36 417.67C142.36 417.81 136.62 417.93 129.55 417.93C122.48 417.93 116.74 417.81 116.74 417.67C116.74 417.53 122.48 417.41 129.55 417.41C136.62 417.41 142.36 417.53 142.36 417.67Z" fill="#263238"/>
<path d="M132.42 416.09C132.29 416.02 132.42 415.57 132.73 415.09C133.04 414.61 133.46 414.41 133.56 414.51C133.66 414.61 133.45 414.99 133.15 415.4C132.85 415.81 132.55 416.16 132.42 416.09Z" fill="#263238"/>
<path d="M133.4 416.65C133.26 416.65 133.33 416.09 133.63 415.56C133.93 415.03 134.33 414.71 134.44 414.79C134.55 414.87 134.37 415.32 134.09 415.79C133.81 416.26 133.53 416.7 133.4 416.65Z" fill="#263238"/>
<path d="M121.36 417.63C121.3 417.63 121.07 417.45 120.74 417.07C120.337 416.582 119.888 416.133 119.4 415.73C118.92 415.346 118.347 415.095 117.74 415C117.27 414.94 116.97 415 116.94 414.94C116.91 414.88 117.2 414.67 117.75 414.63C118.476 414.615 119.184 414.855 119.75 415.31C120.28 415.742 120.728 416.267 121.07 416.86C121.3 417.3 121.42 417.59 121.36 417.63Z" fill="#263238"/>
<path d="M132.47 414.48C132.54 414.6 132.28 414.9 131.84 415.06C131.4 415.22 131.01 415.16 130.99 415.06C130.97 414.96 131.28 414.75 131.66 414.61C132.04 414.47 132.39 414.36 132.47 414.48Z" fill="#263238"/>
<path d="M132.23 413.65C132.23 413.8 131.83 413.92 131.31 413.93C130.79 413.94 130.38 413.82 130.39 413.68C130.4 413.54 130.81 413.41 131.31 413.4C131.81 413.39 132.21 413.51 132.23 413.65Z" fill="#263238"/>
<path d="M169.9 414.34V405.79L154.57 405.68L154.44 418.48L155.39 418.55C159.62 418.82 176.92 419.35 179.75 418.47C182.91 417.49 169.9 414.34 169.9 414.34Z" fill="#1BCAB0"/>
<path d="M180.11 417.69C180.11 417.83 174.38 417.95 167.3 417.95C160.22 417.95 154.5 417.83 154.5 417.69C154.5 417.55 160.23 417.43 167.3 417.43C174.37 417.43 180.11 417.55 180.11 417.69Z" fill="#263238"/>
<path d="M170.17 416.09C170.05 416.02 170.17 415.57 170.48 415.09C170.79 414.61 171.21 414.41 171.31 414.51C171.41 414.61 171.2 414.99 170.9 415.4C170.6 415.81 170.3 416.16 170.17 416.09Z" fill="#263238"/>
<path d="M171.15 416.65C171.02 416.65 171.08 416.09 171.39 415.56C171.7 415.03 172.09 414.71 172.2 414.79C172.31 414.87 172.12 415.32 171.84 415.79C171.56 416.26 171.29 416.7 171.15 416.65Z" fill="#263238"/>
<path d="M159.11 417.63C159.05 417.63 158.83 417.45 158.49 417.07C158.087 416.582 157.638 416.133 157.15 415.73C156.67 415.346 156.097 415.095 155.49 415C155.03 414.94 154.72 415 154.69 414.94C154.66 414.88 154.95 414.67 155.5 414.63C156.226 414.615 156.934 414.855 157.5 415.31C158.033 415.739 158.481 416.265 158.82 416.86C159.05 417.3 159.17 417.59 159.11 417.63Z" fill="#263238"/>
<path d="M170.22 414.48C170.29 414.6 170.03 414.9 169.59 415.06C169.15 415.22 168.76 415.16 168.74 415.06C168.72 414.96 169.03 414.75 169.41 414.61C169.79 414.47 170.14 414.36 170.22 414.48Z" fill="#263238"/>
<path d="M170 413.65C170 413.8 169.6 413.92 169.08 413.93C168.56 413.94 168.16 413.82 168.17 413.68C168.18 413.54 168.58 413.41 169.08 413.4C169.58 413.39 170 413.51 170 413.65Z" fill="#263238"/>
<path d="M226.38 160.44C225.98 160.03 224.99 160.23 224.99 160.23C225.089 159.654 225.089 159.066 224.99 158.49C224.81 157.93 223.55 158.04 223.55 158.04C223.492 157.568 223.492 157.092 223.55 156.62C223.56 156.515 223.538 156.41 223.486 156.319C223.434 156.228 223.355 156.155 223.26 156.11C222.664 155.867 222.024 155.751 221.38 155.77C220.61 155.22 223.73 150.85 224.89 149.45C226.05 148.05 225.84 146.96 224.81 146.96C224.1 146.96 220.46 151.16 219.34 152.57C218.22 153.98 215.25 157.9 215.15 154.77C215.05 151.64 213.79 149.28 213 148.88C212.21 148.48 211.37 149.42 211.8 150.29C212.178 151.278 212.413 152.315 212.5 153.37C212.609 154.21 212.571 155.063 212.39 155.89C212.058 157.43 211.607 158.941 211.04 160.41H210.96C210.96 160.41 189.14 181.34 187.56 182.83C186.15 184.17 157.79 181.24 152.1 180.64C150.166 180.357 148.214 180.223 146.26 180.24C143.79 180.35 143.35 180.7 140.89 180.73C134.677 180.799 128.479 181.344 122.35 182.36C119.575 182.832 116.982 184.057 114.855 185.901C112.729 187.746 111.15 190.139 110.29 192.82C104.56 210.72 91.58 253.09 89.29 276.89C87.5596 280.028 85.9974 283.256 84.61 286.56C83 290.94 83.39 291.09 83.93 291.19C85.39 291.46 87.05 283.6 87.67 285.5C88.29 287.4 84.52 294.87 86.05 295.09C88.05 295.37 89.64 287.09 89.83 286.43C90.02 285.77 91.01 285.98 90.83 286.6C90.54 287.48 87.73 296.81 89.69 297.11C90.77 297.27 90.89 295.3 90.89 295.3C90.89 295.3 92.89 286.37 93.8 286.55C94.71 286.73 93.74 292 93.28 293.76C92.82 295.52 93.46 296.41 94.4 295.98C95.04 295.68 96.57 290.33 96.99 288.59C97.41 286.85 98.46 282.03 99.87 284.82C101.28 287.61 103.42 289.23 104.3 289.27C104.498 289.247 104.685 289.165 104.837 289.035C104.988 288.905 105.097 288.733 105.15 288.541C105.203 288.348 105.197 288.144 105.132 287.955C105.068 287.766 104.949 287.601 104.79 287.48C104.033 286.741 103.383 285.899 102.86 284.98C102.394 284.264 102.055 283.472 101.86 282.64C101.457 280.981 101.223 279.286 101.16 277.58L101 276.58C103.24 265.49 109.69 232.94 119 212.15L122.82 220.01L124.48 225.83L114.3 250.96L157.72 250.39L151.24 225.45L159.11 199.45C167.62 199.64 189.47 199.96 193.11 198.31C197.69 196.31 221.38 166.39 221.38 166.39C222.924 165.19 224.403 163.908 225.81 162.55C225.81 162.55 227.25 161.34 226.38 160.44Z" fill="#FFBE9D"/>
<path d="M112.39 232.39C113.65 228.09 120.12 206.83 120.12 206.83C120.12 206.83 123.3 224.16 122.46 226.25C121.687 228.039 120.774 229.765 119.73 231.41C112.39 242.58 113.35 248.17 113.35 248.17L157.7 246.82C157.8 240.62 154.13 226.2 153.37 223.9C152.61 221.6 155.14 214.07 155.14 214.07C155.14 214.07 160.14 208.98 159.96 206.36C159.865 204.007 159.574 201.665 159.09 199.36L186.09 200.36L185.24 182.06L146.46 178.18C145.11 181.99 132.9 180.12 132.9 180.12C119.72 180.56 118.9 182.98 113.42 187.24C107.94 191.5 98.87 228.06 98.87 228.06L112.39 232.39Z" fill="#1BCAB0"/>
<path d="M138.61 228.06C137.841 228.197 137.059 228.238 136.28 228.18C134.83 228.18 132.84 228.08 130.65 227.86C128.46 227.64 126.48 227.33 125.07 227.05C124.293 226.95 123.53 226.755 122.8 226.47C123.582 226.47 124.362 226.544 125.13 226.69C126.55 226.87 128.52 227.12 130.7 227.34C132.88 227.56 134.86 227.71 136.29 227.81C137.07 227.82 137.846 227.904 138.61 228.06V228.06Z" fill="#263238"/>
<path d="M141.65 224.29C140.881 224.667 140.068 224.945 139.23 225.12C135.24 226.168 131.124 226.656 127 226.57C126.147 226.598 125.293 226.517 124.46 226.33C125.302 226.224 126.151 226.18 127 226.2C128.57 226.15 130.73 226.04 133.11 225.76C135.49 225.48 137.61 225.08 139.11 224.76C139.943 224.538 140.792 224.38 141.65 224.29V224.29Z" fill="#263238"/>
<path d="M156.57 207.47C156.55 208.232 156.446 208.99 156.26 209.73C156 211.12 155.6 213.02 155.09 215.1C154.58 217.18 154.09 219.1 153.65 220.4C153.473 221.144 153.211 221.866 152.87 222.55C152.926 221.79 153.067 221.039 153.29 220.31C153.67 218.75 154.1 216.95 154.58 214.98C155.06 213.01 155.52 211.21 155.9 209.65C156.035 208.899 156.26 208.167 156.57 207.47V207.47Z" fill="#263238"/>
<path d="M112.86 229.84C110.547 229.483 108.263 228.951 106.03 228.25C103.748 227.716 101.508 227.014 99.33 226.15C101.642 226.513 103.925 227.044 106.16 227.74C108.443 228.272 110.682 228.974 112.86 229.84V229.84Z" fill="#263238"/>
<path d="M159.57 199.14C159.193 199.205 158.807 199.205 158.43 199.14C157.385 199.033 156.36 198.787 155.38 198.41C153.744 197.795 152.255 196.845 151.008 195.621C149.761 194.396 148.784 192.924 148.14 191.3C147.428 189.513 147.124 187.59 147.25 185.67C147.295 184.087 147.768 182.545 148.62 181.21C149.219 180.31 150.114 179.649 151.15 179.34C151.427 179.264 151.713 179.227 152 179.23C152.2 179.23 152.3 179.23 152.3 179.23C152.3 179.23 151.88 179.23 151.21 179.5C150.26 179.851 149.454 180.509 148.92 181.37C147.56 183.51 147.18 187.42 148.63 191.07C149.305 192.791 150.361 194.336 151.72 195.59C152.833 196.616 154.115 197.441 155.51 198.03C156.819 198.547 158.18 198.919 159.57 199.14V199.14Z" fill="#263238"/>
<path d="M182.88 200C182.63 196.933 182.55 193.855 182.64 190.78C182.562 187.707 182.655 184.632 182.92 181.57C183.17 184.633 183.25 187.708 183.16 190.78C183.244 193.856 183.151 196.935 182.88 200V200Z" fill="#263238"/>
<path d="M146.2 179.3C146.31 177.07 146.54 174.55 146.54 174.55C146.54 174.55 152.06 173.94 152.39 168.24C152.72 162.54 152.39 149.39 152.39 149.39L142.39 144.27L131.29 153L133 181.5L143.18 182.15C143.958 182.172 144.713 181.884 145.279 181.349C145.845 180.815 146.176 180.078 146.2 179.3V179.3Z" fill="#FFBE9D"/>
<path d="M147.19 163.73C147.19 163.73 147.19 163.84 147.1 163.97C147.026 164.064 146.929 164.139 146.82 164.188C146.71 164.237 146.59 164.258 146.47 164.25C145.83 164.25 145.21 163.51 144.99 162.65C144.885 162.233 144.885 161.797 144.99 161.38C145.011 161.198 145.076 161.024 145.181 160.874C145.286 160.724 145.426 160.602 145.59 160.52C145.724 160.464 145.876 160.464 146.01 160.52C146.11 160.57 146.191 160.65 146.24 160.75C146.31 160.92 146.24 161.03 146.24 161.02C146.24 161.01 146.24 160.92 146.14 160.82C146.088 160.748 146.011 160.699 145.924 160.68C145.837 160.662 145.747 160.676 145.67 160.72C145.547 160.794 145.445 160.898 145.374 161.022C145.302 161.146 145.263 161.287 145.26 161.43C145.176 161.802 145.176 162.188 145.26 162.56C145.46 163.34 146 163.97 146.48 164.03C146.574 164.043 146.669 164.036 146.761 164.01C146.852 163.984 146.937 163.94 147.01 163.88C147.13 163.8 147.17 163.72 147.19 163.73Z" fill="#EB996E"/>
<path d="M155.82 146.31C155.05 143.69 152.26 142.39 149.72 141.67C145.85 140.57 141.67 140.09 137.89 141.48C134.11 142.87 129.57 145.31 129.57 149.48C127.34 149.3 126.06 151.25 125.18 153.67C124.617 155.144 124.28 156.695 124.18 158.27V158.27C123.9 163.73 122.37 171.27 118.83 175.27C116.83 177.5 114.06 179.04 112.92 181.82C111.92 184.23 112.44 187.09 111.51 189.53C110.68 191.68 108.85 193.21 107.51 195.08C106.145 197.201 105.341 199.635 105.175 202.152C105.009 204.669 105.486 207.188 106.56 209.47C107.642 211.694 109.166 213.674 111.038 215.29C112.91 216.906 115.092 218.124 117.45 218.87C122.121 220.291 127.102 220.34 131.8 219.01C135.326 218.167 138.615 216.536 141.42 214.24C144.29 211.896 146.262 208.632 147 205C147.71 200.92 146.57 196.77 145.72 192.71C143.06 179.88 143.82 179.21 147.18 167.3C147.26 167.09 147.3 166.87 147.36 166.66C147.42 166.45 147.45 166.35 147.49 166.19C147.585 165.719 147.636 165.24 147.64 164.76C147.149 164.943 146.617 164.981 146.105 164.871C145.593 164.761 145.123 164.508 144.75 164.14C144.376 163.748 144.116 163.262 143.996 162.734C143.877 162.206 143.902 161.655 144.07 161.14C144.306 160.577 144.658 160.07 145.102 159.651C145.546 159.232 146.074 158.912 146.65 158.71C147.76 158.25 148.95 158.01 150.04 157.5C152.35 156.4 153.95 154.12 155.04 151.73C155.936 150.074 156.213 148.152 155.82 146.31V146.31Z" fill="#263238"/>
<path d="M147.59 164C147.801 164.312 147.976 164.648 148.11 165C148.41 165.63 148.81 166.52 149.25 167.55L149.33 167.74H149.12L148.12 167.83C147.43 167.83 146.85 167.96 146.17 167.95C146.111 167.937 146.056 167.909 146.01 167.868C145.965 167.828 145.93 167.777 145.91 167.72C145.88 167.629 145.88 167.531 145.91 167.44C145.933 167.305 145.963 167.172 146 167.04L146.18 166.33C146.27 165.856 146.411 165.394 146.6 164.95C146.581 165.433 146.511 165.912 146.39 166.38L146.25 167.09C146.2 167.33 146.11 167.7 146.25 167.67C146.75 167.67 147.46 167.56 148.12 167.52L149.12 167.43L148.99 167.65C148.56 166.65 148.2 165.71 147.99 165.06C147.806 164.728 147.671 164.371 147.59 164V164Z" fill="#D42323"/>
<path d="M113.35 248.17L157.7 246.82L177 322.16L173.45 408.58H150L152.87 324L135.72 271.55L138.36 411.93L114.66 412.28L112.17 280.33C112.06 276.66 110.86 268.39 111.31 264.75L113.35 248.17Z" fill="#263238"/>
<path d="M141.62 272.62C140.894 272.666 140.165 272.622 139.45 272.49C138.11 272.33 136.28 272.05 134.27 271.65C132.26 271.25 130.46 270.79 129.16 270.42C128.465 270.267 127.793 270.025 127.16 269.7C127.16 269.55 130.42 270.33 134.42 271.14C138.42 271.95 141.64 272.47 141.62 272.62Z" fill="#455A64"/>
<path d="M173.21 403.84C173.21 403.98 167.9 404.1 161.35 404.1C154.8 404.1 149.48 403.98 149.48 403.84C149.48 403.7 154.79 403.58 161.35 403.58C167.91 403.58 173.21 403.69 173.21 403.84Z" fill="#455A64"/>
<path d="M138.15 408.28C138.15 408.43 132.99 408.54 126.63 408.54C120.27 408.54 115.12 408.43 115.12 408.28C115.12 408.13 120.28 408.02 126.63 408.02C132.98 408.02 138.15 408.14 138.15 408.28Z" fill="#455A64"/>
<path d="M135.09 407.92C134.95 407.92 134.33 377.25 133.7 339.42C133.07 301.59 132.7 270.9 132.83 270.9C132.96 270.9 133.6 301.56 134.22 339.41C134.84 377.26 135.24 407.92 135.09 407.92Z" fill="#455A64"/>
<path d="M170.06 403.84C170.049 403.704 170.049 403.566 170.06 403.43V402.23C170.06 401.15 170.14 399.6 170.2 397.63C170.34 393.63 170.54 387.82 170.79 380.7C171.33 366.38 172.09 346.64 172.92 324.85C172.92 324.64 172.92 324.44 172.92 324.26V324.33C167.67 303.33 162.92 284.27 159.47 270.48L155.47 254.17C155.01 252.26 154.66 250.77 154.41 249.73C154.29 249.24 154.21 248.86 154.14 248.57C154.101 248.44 154.078 248.306 154.07 248.17C154.122 248.296 154.162 248.427 154.19 248.56C154.27 248.84 154.37 249.22 154.51 249.7C154.78 250.7 155.17 252.22 155.67 254.12C156.67 257.98 158.08 263.54 159.84 270.39C163.32 284.17 168.12 303.18 173.44 324.21V324.28C173.44 324.46 173.44 324.67 173.44 324.87C172.55 346.66 171.74 366.39 171.15 380.71C170.84 387.84 170.58 393.61 170.4 397.63C170.3 399.63 170.22 401.15 170.17 402.23C170.17 402.74 170.11 403.14 170.1 403.43C170.101 403.568 170.088 403.705 170.06 403.84V403.84Z" fill="#455A64"/>
<path d="M162.41 322.5C160.726 323.054 158.99 323.439 157.23 323.65C155.07 324.02 153.23 324.28 152.4 324.32V324.12C152.67 324.2 152.81 324.25 152.81 324.29C152.81 324.33 152.64 324.29 152.36 324.29H151.76L152.36 324.11C153.14 323.88 154.98 323.5 157.14 323.11C158.872 322.734 160.638 322.53 162.41 322.5Z" fill="#455A64"/>
<path d="M162 325.37C160.44 325.441 158.877 325.371 157.33 325.16C155.768 325.128 154.212 324.957 152.68 324.65C155.805 324.395 158.951 324.638 162 325.37V325.37Z" fill="#455A64"/>
<path opacity="0.2" d="M113.16 249.76C113.685 250.434 114.347 250.991 115.102 251.392C115.856 251.794 116.687 252.031 117.54 252.09C119.326 252.302 121.133 252.268 122.91 251.99C134.36 250.72 146.49 249.55 157.7 246.82C143.19 247.63 127.86 247.36 113.35 248.17L113.2 249.41" fill="black"/>
<g opacity="0.2">
<path opacity="0.2" d="M128.11 270.21L136.29 301.95L135.72 271.55L128.11 270.21Z" fill="black"/>
</g>
</svg>
