<?xml version="1.0" encoding="iso-8859-1"?>
<!-- Generator: Adobe Illustrator 19.0.0, SVG Export Plug-In . SVG Version: 6.00 Build 0)  -->
<svg version="1.1" id="Layer_1" xmlns="http://www.w3.org/2000/svg" xmlns:xlink="http://www.w3.org/1999/xlink" x="0px" y="0px"
	 viewBox="0 0 512.001 512.001" style="enable-background:new 0 0 512.001 512.001;" xml:space="preserve">
<path style="fill:#F95428;" d="M282.653,65.497c70.776,4.752,126.719,63.666,126.719,135.655v69.846H282.653h-54.435h-126.73
	v-69.846c0-71.99,55.943-130.915,126.73-135.655"/>
<path style="fill:#E03F20;" d="M239.168,65.497h-10.95c-70.788,4.74-126.73,63.666-126.73,135.655v69.846h61.947v-69.846
	C163.433,129.163,196.865,70.237,239.168,65.497z"/>
<path style="fill:#F95428;" d="M502.931,324.726c-115.413,48.503-241.519,61.647-362.716,39.42
	c-45.033-8.256-89.397-21.4-132.276-39.42l93.548-53.72h307.884L502.931,324.726z"/>
<path style="fill:#E03F20;" d="M163.43,271.006l-23.214,93.14c-45.033-8.256-89.397-21.4-132.276-39.42l93.548-53.72H163.43z"/>
<g>
	<polygon style="fill:#F95428;" points="333.674,179.011 303.792,271.006 207.068,271.006 177.186,179.011 228.218,141.939 
		255.436,122.161 282.653,141.939 	"/>
	<path style="fill:#F95428;" d="M282.653,65.175v76.764h-54.435V65.175c0-15.026,12.191-27.217,27.217-27.217
		c7.507,0,14.312,3.051,19.245,7.972C279.602,50.863,282.653,57.668,282.653,65.175z"/>
</g>
<path style="fill:#E03F20;" d="M228.218,65.175v76.764h19.279V65.175c0-15.026,3.555-27.217,7.938-27.217
	C240.409,37.958,228.218,50.149,228.218,65.175z"/>
<polygon style="fill:#CCCCCC;" points="228.218,141.939 255.436,122.161 282.653,141.939 333.674,179.011 303.792,271.006 
	207.068,271.006 177.186,179.011 "/>
<path style="fill:#F95428;" d="M259.606,232.266c4.535-0.305,8.978-1.647,12.766-4.16c5.332-3.537,9.227-8.966,10.104-16.362
	c3.457-29.133-32.096-47.897-32.096-47.897c0,32.096-22.714,26.664-22.221,48.391c0.229,10.092,7.258,16.634,16.195,19.397
	c3.054,0.944,6.271,1.235,9.46,1.021L259.606,232.266z"/>
<path d="M507.731,317.049l-89.284-51.269v-64.923c0-36.879-13.894-71.99-39.124-98.863c-23.465-24.996-54.63-40.672-88.391-44.618
	c-1.422-6.668-4.729-12.805-9.675-17.763c-6.758-6.743-15.727-10.456-25.252-10.456c-17.122,0-31.463,12.111-34.922,28.215
	c-72.072,8.432-127.532,70.12-127.532,143.485v64.926L4.27,317.049c-2.805,1.61-4.453,4.672-4.254,7.9
	c0.2,3.229,2.213,6.064,5.194,7.317c19.359,8.137,38.989,15.29,58.849,21.476c-4.52,23.627-1.741,48.434,8.065,70.6
	c10.932,24.714,30.207,45.155,54.272,57.557c1.246,0.642,2.578,0.946,3.889,0.946c3.083,0,6.058-1.682,7.568-4.611
	c2.151-4.176,0.511-9.305-3.664-11.457c-20.923-10.783-37.005-27.835-46.508-49.317c-8.179-18.487-10.666-39.11-7.234-58.849
	c56.948,16.088,115.721,24.214,175.551,24.214c59.825,0,118.594-8.125,175.537-24.21c3.438,19.737,0.954,40.359-7.224,58.847
	c-9.501,21.479-25.583,38.533-46.506,49.314c-4.176,2.151-5.817,7.281-3.664,11.457c1.511,2.929,4.484,4.611,7.568,4.611
	c1.311,0,2.643-0.305,3.889-0.946c24.066-12.402,43.34-32.842,54.271-57.554c9.806-22.168,12.582-46.975,8.056-70.598
	c19.866-6.185,39.5-13.341,58.865-21.48c2.981-1.253,4.994-4.088,5.194-7.317C512.184,321.723,510.535,318.66,507.731,317.049z
	 M220.281,74.625v62.681l-47.526,34.529c-2.98,2.166-4.229,6.004-3.09,9.509l6.954,21.408c1.452,4.467,6.251,6.914,10.717,5.462
	c4.467-1.452,6.913-6.25,5.462-10.717l-5.045-15.531l68.252-49.585l68.241,49.585L298.182,262.2h-84.367l-12.479-38.417
	c-1.452-4.467-6.247-6.913-10.717-5.462c-4.467,1.452-6.913,6.25-5.462,10.717L195.93,262.2h-85.368v-61.342
	C110.562,137.075,158.065,83.301,220.281,74.625z M256,365.815c-78.513,0-155.161-14.364-228.099-42.719l76.427-43.887h245.236
	c4.697,0,8.505-3.808,8.505-8.505c0-4.697-3.808-8.505-8.505-8.505h-33.495l26.265-80.856c1.137-3.504-0.109-7.343-3.09-9.508
	l-78.238-56.85c-2.981-2.166-7.018-2.166-9.999,0l-13.712,9.963V64.88c0-10.318,8.394-18.712,18.712-18.712
	c4.989,0,9.69,1.949,13.224,5.474c3.539,3.547,5.488,8.249,5.488,13.238v45.702c0,4.697,3.808,8.505,8.505,8.505
	s8.505-3.808,8.505-8.505V74.626c62.211,8.687,109.708,62.46,109.708,126.23v61.342H377.35c-4.697,0-8.505,3.808-8.505,8.505
	c0,4.697,3.808,8.505,8.505,8.505h30.325l76.427,43.887C411.162,351.451,334.513,365.815,256,365.815z"/>
<path d="M242.412,239.464c3.158,0.976,6.509,1.467,9.993,1.467c0.843,0,1.693-0.028,2.55-0.086l5.789-0.389
	c6.202-0.417,12.046-2.34,16.897-5.558c7.828-5.194,12.747-13.165,13.848-22.447c4.097-34.535-34.91-55.544-36.572-56.421
	c-2.638-1.391-5.81-1.302-8.363,0.238c-2.553,1.539-4.113,4.303-4.113,7.284c0,13.835-4.477,18.025-10.146,23.329
	c-5.517,5.162-12.383,11.588-12.072,25.255C220.518,225.045,228.813,235.261,242.412,239.464z M243.92,199.301
	c4.744-4.439,10.757-10.066,13.717-20.876c8.453,6.934,18.589,18.29,16.961,32.021c-0.518,4.364-2.657,7.82-6.36,10.278
	c-2.392,1.587-5.378,2.541-8.635,2.761l-5.789,0.389c-2.309,0.154-4.457-0.067-6.379-0.661c-3.74-1.157-10.039-4.182-10.204-11.464
	C237.093,205.689,239.232,203.687,243.92,199.301z"/>
<g>
</g>
<g>
</g>
<g>
</g>
<g>
</g>
<g>
</g>
<g>
</g>
<g>
</g>
<g>
</g>
<g>
</g>
<g>
</g>
<g>
</g>
<g>
</g>
<g>
</g>
<g>
</g>
<g>
</g>
</svg>
