<?xml version="1.0" encoding="iso-8859-1"?>
<!-- Generator: Adobe Illustrator 19.0.0, SVG Export Plug-In . SVG Version: 6.00 Build 0)  -->
<svg width="26" height="26" version="1.1" id="Layer_1" xmlns="http://www.w3.org/2000/svg" xmlns:xlink="http://www.w3.org/1999/xlink" x="0px" y="0px"
	 viewBox="0 0 297 297" style="enable-background:new 0 0 297 297;" xml:space="preserve">
<g>
	<g>
		<g>
			<path d="M170.183,28.854H17.044C7.646,28.854,0,36.5,0,45.898v24.71c0,9.398,7.646,17.044,17.044,17.044h153.139
				c9.398,0,17.044-7.646,17.044-17.044v-24.71C187.227,36.5,179.581,28.854,170.183,28.854z"/>
			<path d="M170.183,119.101H17.044C7.646,119.101,0,126.747,0,136.145v24.71c0,9.398,7.646,17.044,17.044,17.044h153.139
				c9.398,0,17.044-7.646,17.044-17.044v-24.71C187.227,126.747,179.581,119.101,170.183,119.101z"/>
			<path d="M170.183,209.348H17.044C7.646,209.348,0,216.995,0,226.393v24.709c0,9.398,7.646,17.044,17.044,17.044h153.139
				c9.398,0,17.044-7.646,17.044-17.044v-24.709C187.227,216.995,179.581,209.348,170.183,209.348z"/>
			<path d="M295.317,129.161c-2.68-5.338-8.055-8.654-14.028-8.654h-54.824c-5.973,0-11.348,3.316-14.028,8.654
				c-2.68,5.337-2.128,11.629,1.439,16.42l27.41,36.805c2.992,4.018,7.581,6.322,12.59,6.322c5.01,0,9.598-2.304,12.589-6.321
				l27.412-36.806C297.446,140.79,297.997,134.498,295.317,129.161z"/>
		</g>
	</g>
</g>
<g>
</g>
<g>
</g>
<g>
</g>
<g>
</g>
<g>
</g>
<g>
</g>
<g>
</g>
<g>
</g>
<g>
</g>
<g>
</g>
<g>
</g>
<g>
</g>
<g>
</g>
<g>
</g>
<g>
</g>
</svg>
