<svg style="margin-top: -4px;" version="1.1" id="Layer_1" xmlns:x="&ns_extend;" xmlns:i="&ns_ai;" xmlns:graph="&ns_graphs;" xmlns="http://www.w3.org/2000/svg" xmlns:xlink="http://www.w3.org/1999/xlink" x="0px" y="0px" width="24px" height="24px"viewBox="0 0 24 24" enable-background="new 0 0 24 24" xml:space="preserve"><metadata><sfw  xmlns="&ns_sfw;"><slices></slices><sliceSourceBounds  width="505" height="984" bottomLeftOrigin="true" x="0" y="-984"></sliceSourceBounds></sfw></metadata><g><g><g><path d="M18.2,24H3.8C1.7,24,0,22.3,0,20.2V5.8C0,3.7,1.7,2,3.8,2H11c0.6,0,1,0.4,1,1s-0.4,1-1,1H3.8C2.8,4,2,4.8,2,5.8v14.3c0,1,0.8,1.8,1.8,1.8h14.3c1,0,1.8-0.8,1.8-1.8V13c0-0.6,0.4-1,1-1s1,0.4,1,1v7.2C22,22.3,20.3,24,18.2,24z"/></g></g><g><g><path d="M6,19c-0.3,0-0.5-0.1-0.7-0.3C5.1,18.5,5,18.1,5,17.8l1-5c0-0.2,0.1-0.4,0.3-0.5l12-12c0.4-0.4,1-0.4,1.4,0l4,4c0.4,0.4,0.4,1,0,1.4l-12,12c-0.1,0.1-0.3,0.2-0.5,0.3l-5,1C6.1,19,6.1,19,6,19z M7.9,13.5l-0.6,3.2l3.2-0.6L21.6,5L19,2.4L7.9,13.5z"/></g></g></g></svg>